<svg width="500.000000pt" height="500.000000pt" viewBox="0 0 500.000000 500.000000" xmlns="http://www.w3.org/2000/svg">
  <g transform="translate(0.000000,500.000000) scale(0.100000,-0.100000)" fill="#fefefe" stroke="none">
    <path d="M0 2500 l0 -2500 2500 0 2500 0 0 2500 0 2500 -2500 0 -2500 0 0
-2500z m2772 960 c34 -11 70 -20 79 -20 9 0 36 -13 60 -30 24 -16 53 -30 65
-30 l21 0 11 -25 c6 -14 17 -25 23 -25 11 0 74 -61 129 -126 40 -47 69 -93 76
-119 3 -14 10 -28 15 -31 5 -3 9 -14 9 -25 0 -10 4 -19 9 -19 14 0 23 -73 28
-239 l4 -154 -10 -10 c-6 -6 -11 -21 -11 -33 0 -13 -4 -26 -10 -29 -5 -3 -10
-17 -10 -31 0 -13 -4 -24 -9 -24 -5 0 -12 -14 -16 -30 -4 -17 -21 -47 -38 -69
-18 -21 -39 -48 -47 -61 -24 -36 -52 -64 -97 -99 -24 -18 -43 -39 -43 -47 l0
-14 -30 0 -30 0 0 -15 c0 -8 7 -15 15 -15 8 0 15 -7 15 -15 0 -18 27 -20 32
-3 l4 11 26 -17 26 -17 17 -47 c10 -26 24 -54 31 -63 15 -17 19 -99 6 -99 -5
0 -8 -21 -8 -47 l0 -48 -29 -72 -29 -73 -13 0 c-7 0 -13 -8 -13 -17 -1 -19
-22 -53 -34 -53 -4 0 -17 -11 -30 -25 l-23 -25 -51 -11 c-29 -6 -55 -15 -58
-20 l-6 -10 -84 7 -84 7 0 -17 0 -16 -81 0 -80 0 -16 16 -16 16 -46 -3 c-25
-1 -58 2 -72 8 -14 6 -48 14 -75 18 -27 4 -60 14 -73 22 -38 25 -81 65 -81 78
0 7 -12 25 -27 41 l-26 28 -13 69 -13 68 10 82 c6 44 12 84 15 89 3 4 11 8 19
8 16 0 21 13 30 74 l7 47 28 -6 28 -6 7 11 c3 5 11 8 16 5 15 -10 49 5 49 22
l0 15 -21 -5 -21 -6 -5 20 c-3 10 -11 19 -17 19 -7 0 -27 16 -46 36 -19 19
-41 40 -48 47 -41 37 -92 100 -92 114 0 6 -3 13 -7 15 -15 6 -68 126 -78 173
-3 17 -12 59 -19 95 -8 36 -11 70 -7 75 4 6 9 53 10 105 l2 95 9 3 c6 2 10 12
10 22 0 10 5 22 10 25 6 3 10 17 10 31 0 13 5 24 10 24 6 0 10 11 10 25 0 14
4 25 8 25 4 0 20 19 35 43 15 23 38 54 52 69 14 15 25 31 25 35 0 10 65 63 77
63 5 0 14 9 21 20 7 11 17 20 22 20 12 0 73 41 78 53 2 4 14 7 26 7 12 0 27 5
33 11 6 6 42 19 79 29 l69 18 112 1 111 1 64 -20z" />
    <path d="M2420 3174 c-47 -21 -78 -51 -101 -98 l-19 -40 0 -65 1 -66 17 -35
c9 -19 31 -44 49 -55 18 -11 32 -24 33 -29 0 -4 -17 -25 -38 -46 -21 -20 -49
-58 -61 -84 l-23 -47 4 -54 5 -55 34 -50 34 -50 41 -20 40 -20 70 0 69 0 45
16 c25 9 49 22 53 30 4 8 14 14 22 14 12 0 153 135 201 192 17 19 123 112 140
121 18 10 18 44 0 54 -8 4 -38 31 -68 59 -48 46 -70 70 -170 187 -49 58 -91
96 -110 103 -10 3 -18 9 -18 14 0 14 -60 29 -140 34 l-75 6 -35 -16z" />
  </g>
  <g transform="translate(0.000000,500.000000) scale(0.100000,-0.100000)" fill="#f61ea3" stroke="none">
    <path d="M2425 3390 c-3 -5 -15 -10 -26 -10 -10 0 -27 -4 -37 -9 -9 -5 -30
-15 -47 -22 -32 -14 -72 -41 -114 -74 -53 -42 -134 -131 -147 -162 -8 -18 -19
-33 -24 -33 -6 0 -10 -7 -10 -15 0 -8 -4 -23 -9 -33 -40 -78 -51 -139 -51
-276 l0 -126 10 0 10 0 0 -40 0 -40 10 0 c6 0 10 -6 10 -13 0 -18 24 -67 33
-67 4 0 7 -8 7 -17 0 -10 13 -34 28 -53 43 -55 146 -154 178 -170 16 -8 31
-18 34 -21 11 -13 50 -29 69 -29 12 0 21 -4 21 -10 0 -5 14 -10 30 -10 17 0
30 -4 30 -9 0 -8 89 -21 150 -23 54 -1 180 15 180 23 0 5 8 9 19 9 22 0 125
41 129 52 2 4 8 8 12 8 18 0 96 61 145 112 28 29 60 71 71 93 11 22 25 49 31
60 6 11 15 31 21 45 5 14 15 38 21 53 6 15 11 43 11 62 0 19 5 37 10 40 l10 6
0 74 0 74 -10 6 c-5 3 -10 24 -10 46 0 21 -4 39 -10 39 -5 0 -10 15 -10 34 0
19 -4 38 -10 41 -5 3 -10 15 -10 26 0 10 -4 19 -10 19 -5 0 -10 9 -10 20 0 11
-4 20 -10 20 -5 0 -10 6 -10 13 0 7 -9 23 -20 35 -11 12 -20 24 -20 27 0 10
-109 115 -120 115 -6 0 -24 14 -42 30 -17 17 -38 30 -47 30 -9 0 -34 9 -56 19
-22 10 -56 24 -76 30 l-35 11 -147 0 -146 0 -6 -10z m192 -202 c15 -7 30 -15
33 -19 3 -3 25 -18 50 -32 25 -15 54 -40 65 -57 11 -16 28 -33 38 -36 9 -3 17
-12 17 -20 0 -16 55 -74 71 -74 5 0 16 -15 24 -32 14 -33 73 -94 129 -134 l29
-21 -8 -12 c-4 -7 -21 -21 -38 -32 -45 -27 -207 -188 -207 -205 0 -8 -6 -14
-12 -14 -7 0 -33 -21 -58 -46 -25 -25 -58 -53 -75 -61 -16 -9 -32 -19 -35 -23
-6 -9 -114 -30 -152 -30 -15 0 -36 4 -46 9 -9 5 -30 15 -46 22 -34 16 -81 64
-102 103 l-14 28 0 75 0 75 20 25 c11 14 20 32 20 39 0 7 12 19 27 26 15 7 29
20 31 29 2 9 -10 29 -25 46 -15 16 -34 43 -42 59 -7 16 -17 37 -22 46 -14 28
-11 79 9 130 19 50 66 102 116 129 l31 17 72 1 72 1 28 -12z" />
  </g>
  <g transform="translate(0.000000,500.000000) scale(0.100000,-0.100000)" fill="#fdf7f9" stroke="none">
    <path d="M2908 3453 c7 -3 16 -2 19 1 4 3 -2 6 -13 5 l-19 -1 13 -5z" />
    <path d="M3025 3390 c3 -5 8 -10 11 -10 3 0 2 5 -1 10 -3 6 -8 10 -11 10 -3 0
-2 -4 1 -10z" />
    <path d="M3043 3353 c4 -3 10 -3 14 0 3 4 0 7 -7 7 -7 0 -10 -3 -7 -7z" />
    <path d="M2035 3230 c3 -5 8 -10 11 -10 3 0 2 5 -1 10 -3 6 -8 10 -11 10 -3 0
-2 -4 1 -10z" />
    <path d="M2480 3191 c0 -6 12 -11 26 -11 14 0 23 -4 20 -8 -2 -4 11 -6 29 -4
36 4 105 -14 105 -28 0 -4 7 -10 15 -14 l15 -5 0 14 c0 8 -7 15 -15 15 -8 0
-15 4 -15 9 0 10 -64 27 -132 36 l-48 6 0 -10z" />
    <path d="M2420 3177 c-14 -6 -29 -17 -33 -24 -4 -7 -15 -13 -23 -13 -8 0 -18
-8 -21 -17 -4 -10 -13 -24 -20 -31 -12 -13 -19 -52 -8 -52 3 0 11 15 18 33 8
17 22 39 32 47 11 8 16 10 12 4 l-7 -12 14 -5 13 -5 -3 25 -2 25 14 -6 15 -6
-6 10 c-3 6 0 10 7 10 8 0 23 7 34 15 l19 14 -15 0 c-8 0 -26 -6 -40 -12z" />
    <path d="M2715 3100 c20 -22 31 -20 22 5 -4 8 -14 15 -23 15 l-17 0 18 -20z" />
    <path d="M2680 3100 c0 -7 3 -10 7 -7 3 4 3 10 0 14 -4 3 -7 0 -7 -7z" />
    <path d="M2746 3071 c-3 -5 1 -11 9 -15 8 -3 15 -13 15 -22 0 -10 3 -14 7 -11
3 4 15 0 25 -10 l18 -16 0 15 c0 14 -50 68 -62 68 -4 0 -9 -4 -12 -9z" />
    <path d="M2723 3045 c0 -8 4 -12 9 -9 5 3 6 10 3 15 -9 13 -12 11 -12 -6z" />
    <path d="M2290 2982 c0 -50 16 -112 29 -112 17 0 19 13 5 28 l-16 15 4 55 3
55 -12 4 -13 5 0 -50z" />
    <path d="M2832 2968 c7 -13 11 -27 10 -31 -1 -5 2 -5 9 -2 l11 7 16 -23 c9
-13 16 -28 14 -32 -1 -5 3 -5 9 -1 l12 7 -6 -16 -6 -16 15 6 c16 6 19 23 4 23
-5 0 -10 6 -10 14 0 8 -8 21 -18 28 -11 7 -24 23 -31 36 -6 12 -18 22 -27 22
l-15 0 13 -22z" />
    <path d="M2805 2970 c3 -5 8 -10 11 -10 3 0 2 5 -1 10 -3 6 -8 10 -11 10 -3 0
-2 -4 1 -10z" />
    <path d="M2805 2930 l-6 -10 15 6 c18 7 21 14 7 14 -6 0 -13 -4 -16 -10z" />
    <path d="M2925 2860 l-6 -10 15 0 c9 0 16 5 16 10 0 6 -4 10 -9 10 -6 0 -13
-4 -16 -10z" />
    <path d="M2340 2835 c0 -8 10 -20 23 -26 12 -7 25 -16 28 -22 l7 -9 18 11 c11
6 14 11 8 11 -6 0 -28 11 -48 25 l-36 24 0 -14z" />
    <path d="M2423 2813 c4 -3 10 -3 14 0 3 4 0 7 -7 7 -7 0 -10 -3 -7 -7z" />
    <path d="M2974 2808 l-7 -11 11 7 c7 4 12 9 12 12 0 8 -9 4 -16 -8z" />
    <path d="M3005 2790 c3 -5 10 -10 16 -10 5 0 9 5 9 10 0 6 -7 10 -16 10 l-15
0 6 -10z" />
    <path d="M2973 2773 c-17 -6 -17 -20 0 -20 8 0 14 6 14 14 0 7 -1 13 -1 12 -1
0 -7 -3 -13 -6z" />
    <path d="M2380 2760 c0 -5 4 -10 9 -10 6 0 13 5 16 10 l6 10 -15 0 c-9 0 -16
-4 -16 -10z" />
    <path d="M3025 2752 c6 -6 -40 -42 -55 -42 -6 0 -9 -4 -6 -8 3 -5 -11 -22 -31
-38 -48 -38 -63 -54 -63 -65 0 -19 19 -7 58 36 22 25 45 45 51 45 6 0 11 3 11
8 0 4 14 16 30 27 32 21 39 42 15 42 -8 0 -13 -2 -10 -5z" />
    <path d="M2347 2739 c-24 -14 -67 -106 -67 -143 0 -27 13 -29 16 -3 0 7 2 20
2 30 l2 18 12 -7 11 -7 -7 11 c-8 13 28 75 37 65 4 -3 7 1 7 10 l0 17 16 0 15
0 -6 10 c-8 12 -15 12 -38 -1z" />
    <path d="M2974 2728 l-7 -11 11 7 c7 4 12 9 12 12 0 8 -9 4 -16 -8z" />
    <path d="M2842 2579 c-8 -12 -11 -24 -7 -27 3 -3 13 2 22 11 l17 17 -10 10
-10 10 -12 -21z" />
    <path d="M2300 2550 c0 -7 3 -10 7 -7 3 4 3 10 0 14 -4 3 -7 0 -7 -7z" />
    <path d="M2284 2515 c4 -16 12 -31 17 -33 5 -2 9 -10 9 -17 0 -18 37 -61 45
-53 4 4 -4 22 -18 40 -13 18 -23 38 -20 44 2 6 -6 19 -18 30 l-22 19 7 -30z" />
    <path d="M2790 2520 c0 -5 -8 -7 -17 -4 l-18 6 14 -10 c15 -11 41 -5 41 9 0 5
-4 9 -10 9 -5 0 -10 -4 -10 -10z" />
    <path d="M3260 2504 l0 -15 10 6 c6 4 8 11 5 16 -9 14 -15 11 -15 -7z" />
    <path d="M2734 2498 l-7 -11 11 7 c7 4 12 9 12 12 0 8 -9 4 -16 -8z" />
    <path d="M2719 2454 c-7 -9 -23 -20 -36 -25 -24 -9 -32 -29 -11 -29 15 0 78
49 78 61 0 14 -16 11 -31 -7z" />
    <path d="M1944 2448 l-7 -11 11 7 c12 7 16 16 8 16 -3 0 -8 -5 -12 -12z" />
    <path d="M2367 2413 c-11 -11 -8 -23 6 -23 8 0 14 7 14 15 0 16 -9 19 -20 8z" />
    <path d="M2639 2413 c-1 -5 -1 -11 0 -15 0 -5 -7 -8 -17 -8 -18 0 -65 -29 -48
-30 20 0 86 24 86 32 0 4 -5 8 -11 8 -5 0 -7 5 -4 10 3 6 4 10 1 10 -3 0 -7
-3 -7 -7z" />
    <path d="M1966 2394 l-6 -17 15 13 c17 14 19 20 6 20 -5 0 -12 -7 -15 -16z" />
    <path d="M3245 2390 c3 -5 8 -10 11 -10 3 0 2 5 -1 10 -3 6 -8 10 -11 10 -3 0
-2 -4 1 -10z" />
    <path d="M2427 2383 c-11 -11 -8 -23 6 -23 8 0 14 7 14 15 0 16 -9 19 -20 8z" />
    <path d="M2464 2371 c-14 -14 2 -21 46 -21 28 0 50 4 50 9 0 9 -88 20 -96 12z" />
    <path d="M3140 2308 c0 -3 6 -11 14 -17 l13 -11 14 17 14 18 -16 -12 -15 -13
-12 12 c-7 7 -12 9 -12 6z" />
    <path d="M3099 2238 c0 -2 -2 -10 -4 -19 l-3 -16 14 0 14 0 -10 12 c-5 7 -7
15 -3 18 3 4 3 7 0 7 -4 0 -7 -1 -8 -2z" />
    <path d="M2120 2215 c-7 -9 -10 -18 -7 -21 3 -3 10 4 17 15 13 25 8 27 -10 6z" />
    <path d="M2147 2204 c-10 -11 -8 -24 4 -24 l10 0 -7 12 -7 11 11 -7 c7 -4 12
-8 12 -10 0 -2 -8 -13 -19 -25 l-19 -21 -13 5 -14 5 -2 -50 c-1 -27 -6 -57
-12 -67 l-10 -18 -1 13 c0 6 -4 12 -9 12 -10 0 -26 -72 -36 -160 l-5 -55 13
-70 14 -71 26 -28 c15 -16 27 -34 27 -41 0 -11 24 -35 73 -74 9 -7 49 -19 88
-27 39 -7 77 -18 84 -24 l12 -10 45 6 44 6 16 -16 17 -16 115 0 116 0 0 9 c0
5 -12 12 -27 14 -16 3 9 2 55 0 l82 -5 13 10 c7 6 35 16 62 22 l49 11 23 25
c13 14 23 21 23 17 1 -16 40 42 40 60 0 9 6 17 13 17 l13 0 29 73 29 72 1 47
c0 27 3 48 8 48 4 0 7 23 7 52 l0 51 -13 16 c-8 9 -23 40 -35 69 l-21 52 17 0
16 0 -12 12 -11 11 -14 -12 -14 -11 -13 15 c-7 9 -19 14 -25 11 -7 -2 -18 0
-26 5 l-14 9 31 -4 31 -3 0 13 c0 7 -5 10 -10 7 l-10 -6 6 16 6 17 -14 0 c-8
0 -15 -7 -15 -15 l0 -15 -21 0 c-11 0 -18 -4 -15 -9 3 -5 -3 -11 -14 -14 -11
-3 -20 -12 -20 -21 l0 -16 28 -6 27 -6 35 -46 35 -45 3 -106 4 -106 -21 -24
-21 -24 0 -28 0 -29 -20 -12 c-11 -7 -20 -21 -20 -30 l0 -18 -37 -24 c-21 -14
-56 -28 -78 -31 -22 -4 -44 -13 -50 -19 -12 -15 -113 -26 -235 -28 -90 -1
-230 18 -230 32 0 4 -27 11 -60 15 l-60 7 -25 20 c-14 11 -25 26 -25 34 0 8
-4 14 -8 14 -4 0 -14 17 -21 38 -8 20 -18 40 -24 43 -5 4 -13 26 -18 50 l-8
44 11 75 11 75 27 55 26 55 25 12 c13 7 36 15 52 18 l27 5 0 14 c0 16 -27 29
-42 19 l-11 -6 6 10 7 11 -23 7 c-12 4 -25 7 -29 6 -5 -1 -7 4 -5 11 2 13 -25
22 -36 12z m48 -44 l6 -10 -15 6 c-18 7 -21 14 -7 14 6 0 13 -4 16 -10z m-15
-14 c0 -3 -4 -8 -10 -11 -5 -3 -10 -1 -10 4 0 6 5 11 10 11 6 0 10 -2 10 -4z" />
    <path d="M2890 2125 c0 -8 7 -15 15 -15 8 0 15 7 15 15 0 8 -7 15 -15 15 -8 0
-15 -7 -15 -15z" />
  </g>
  <g transform="translate(0.000000,500.000000) scale(0.100000,-0.100000)" fill="#feedf8" stroke="none">
    <path d="M2410 3178 c-48 -25 -60 -42 -36 -51 l16 -6 -3 11 c-1 7 16 21 38 31
l40 20 55 -1 c83 -2 134 -24 206 -88 13 -12 23 -23 21 -25 -1 -2 0 -3 2 -1 2
1 13 -5 23 -15 l18 -16 0 15 c0 20 -64 78 -125 114 l-48 28 -81 4 -81 3 -45
-23z" />
    <path d="M2310 3088 c-11 -18 -20 -42 -20 -54 l0 -21 15 0 c8 0 12 4 9 8 -2 5
2 24 10 44 l16 36 10 -6 10 -6 -6 15 c-9 24 -22 19 -44 -16z" />
    <path d="M2810 3013 c0 -13 73 -97 157 -180 69 -69 86 -93 63 -93 -6 0 -80
-68 -166 -152 -85 -84 -170 -162 -188 -174 -17 -12 -52 -28 -76 -35 -25 -7
-49 -16 -55 -21 l-9 -8 30 0 c17 0 57 13 90 30 l59 29 139 140 c76 77 156 152
177 167 21 15 39 31 39 35 0 5 -48 58 -107 117 -60 60 -113 117 -119 127 -11
20 -34 32 -34 18z" />
    <path d="M2280 2975 c0 -8 5 -15 10 -15 6 0 10 7 10 15 0 8 -4 15 -10 15 -5 0
-10 -7 -10 -15z" />
    <path d="M2290 2925 c0 -22 39 -95 50 -95 6 0 10 -6 10 -13 0 -7 10 -18 21
-25 l21 -14 -34 -24 c-19 -14 -46 -44 -59 -67 l-24 -42 0 -70 1 -70 21 -40
c12 -22 32 -50 45 -62 29 -27 79 -48 136 -58 l42 -7 0 11 c0 6 -12 11 -26 11
l-25 0 7 12 7 11 -12 -7 c-7 -5 -23 -5 -37 -2 l-25 7 7 11 7 11 -11 -6 c-14
-9 -43 3 -36 14 3 5 0 8 -7 7 -15 -4 -61 61 -52 75 l6 10 -10 -6 -11 -7 -6 23
c-3 12 -6 40 -6 62 l0 40 23 50 24 50 41 29 41 28 -11 18 c-7 10 -22 23 -34
29 l-22 10 -27 55 c-15 31 -29 56 -31 56 -2 0 -4 -7 -4 -15z" />
    <path d="M2185 2105 c-31 -30 -54 -58 -51 -63 3 -5 -4 -23 -15 -41 -11 -18
-17 -36 -14 -40 2 -5 0 -34 -6 -66 l-10 -57 11 -70 12 -71 7 12 8 12 13 -41
c7 -22 17 -40 22 -40 4 0 8 -6 8 -14 0 -8 11 -23 25 -34 l25 -20 57 -7 c32 -4
60 -11 63 -16 9 -13 188 -36 265 -33 39 1 102 5 140 9 l70 7 8 14 c4 7 16 11
27 9 11 -2 22 0 25 6 4 5 14 9 23 9 10 0 34 11 55 25 l37 26 0 17 c0 9 9 23
20 30 l20 12 0 29 c0 15 9 38 20 51 l20 23 0 37 c0 20 5 41 12 48 l12 12 -11
0 -11 0 -4 69 -4 70 -32 40 c-18 22 -32 45 -32 51 l0 11 -17 -5 c-10 -3 -24
-2 -32 3 l-13 9 17 9 18 10 -11 7 c-13 8 -64 -19 -54 -29 4 -5 2 -5 -5 -1 -7
3 -39 -1 -72 -11 l-61 -18 0 -13 0 -12 76 5 75 5 29 -15 c16 -8 34 -25 41 -36
14 -27 13 -138 -1 -209 -7 -30 -15 -71 -19 -91 -10 -45 -46 -95 -80 -108 -36
-14 -354 -34 -410 -26 -25 4 -58 13 -74 21 l-28 15 -58 -7 -58 -6 -22 11 c-11
7 -30 30 -42 53 l-21 42 -1 125 -1 126 17 38 18 38 32 20 32 20 55 -6 c30 -3
64 -8 77 -11 l23 -6 0 14 0 13 -75 24 c-41 12 -79 20 -85 16 -5 -3 -20 -8 -31
-10 l-21 -4 17 19 c10 11 15 20 12 20 -3 0 -31 -25 -62 -55z" />
    <path d="M2510 2067 c0 -14 28 -27 63 -27 l17 0 0 15 0 15 -17 0 c-10 0 -28 3
-40 6 l-23 6 0 -15z" />
    <path d="M3080 1920 c0 -7 3 -10 7 -7 3 4 3 10 0 14 -4 3 -7 0 -7 -7z" />
  </g>
  <g transform="translate(0.000000,500.000000) scale(0.100000,-0.100000)" fill="#5fdfe5" stroke="none">
    <path d="M2485 3468 c-33 -5 -76 -14 -95 -20 -38 -11 -182 -82 -208 -101 -8
-7 -45 -41 -82 -77 -64 -63 -122 -148 -149 -220 -7 -19 -16 -44 -21 -55 -4
-11 -12 -36 -19 -56 l-11 -35 0 -121 0 -120 19 -75 c11 -42 37 -109 58 -150
l38 -73 80 -80 c44 -44 94 -87 110 -95 17 -8 42 -22 57 -32 14 -10 33 -18 42
-18 l16 0 0 16 c0 18 -27 43 -48 44 -12 0 -27 12 -113 88 -49 43 -111 124
-147 193 -16 30 -39 94 -51 141 l-23 86 5 83 c6 100 16 157 28 165 5 3 9 13 9
24 0 21 46 111 90 175 44 64 153 154 235 194 124 61 166 71 293 71 l101 0 75
-24 c41 -13 103 -40 139 -59 120 -67 238 -204 286 -332 13 -33 27 -70 32 -83
5 -13 9 -85 9 -162 l0 -139 -10 -6 c-5 -3 -10 -15 -10 -25 0 -21 -79 -183 -92
-188 -4 -2 -8 -9 -8 -16 0 -20 -155 -160 -206 -186 -27 -14 -51 -28 -54 -31
-3 -4 -14 -8 -25 -10 -11 -3 -21 -12 -23 -22 l-3 -17 25 0 26 0 0 14 0 14 19
-5 c20 -5 75 20 145 67 57 39 165 157 173 190 3 14 12 30 18 35 20 17 57 116
71 190 25 125 14 290 -26 390 -27 69 -65 145 -72 145 -4 0 -8 5 -8 10 0 15
-15 33 -95 114 l-71 71 -69 34 c-82 39 -97 45 -150 60 -116 32 -191 37 -310
19z" />
    <path d="M2330 2140 l0 -20 20 0 20 0 0 20 0 20 -20 0 -20 0 0 -20z" />
  </g>
  <g transform="translate(0.000000,500.000000) scale(0.100000,-0.100000)" fill="#fd8dd3" stroke="none">
    <path d="M2400 3175 l0 -14 15 5 c8 4 15 10 15 15 0 5 -7 9 -15 9 -8 0 -15 -7
-15 -15z" />
    <path d="M2310 3094 l0 -16 15 12 c8 7 15 14 15 16 0 2 -7 4 -15 4 -8 0 -15
-7 -15 -16z" />
    <path d="M2290 2900 c0 -20 24 -60 36 -60 l14 0 -17 35 c-16 33 -33 46 -33 25z" />
    <path d="M3010 2806 c0 -2 7 -9 15 -16 l15 -12 0 16 c0 9 -7 16 -15 16 -8 0
-15 -2 -15 -4z" />
    <path d="M2300 2694 l0 -16 15 12 c8 7 15 14 15 16 0 2 -7 4 -15 4 -8 0 -15
-7 -15 -16z" />
    <path d="M2950 2665 l-12 -15 16 0 c9 0 16 7 16 15 0 8 -2 15 -4 15 -2 0 -9
-7 -16 -15z" />
    <path d="M2840 2555 l-12 -15 10 0 c12 0 26 19 19 26 -2 2 -10 -2 -17 -11z" />
    <path d="M2680 2405 l-12 -15 16 0 c9 0 16 7 16 15 0 8 -2 15 -4 15 -2 0 -9
-7 -16 -15z" />
    <path d="M2440 2350 c0 -5 7 -10 15 -10 8 0 15 5 15 10 0 6 -7 10 -15 10 -8 0
-15 -4 -15 -10z" />
    <path d="M2255 2053 c-25 -7 -35 -21 -35 -50 l0 -23 25 -6 c27 -7 34 -24 10
-24 l-15 0 0 -20 0 -20 -15 0 -15 0 0 -60 0 -60 33 -1 32 -1 -17 -5 -18 -4 0
-20 c0 -10 -4 -19 -10 -19 -11 0 -13 -42 -4 -77 l6 -23 38 0 39 0 5 18 c2 9 7
31 11 47 3 17 15 36 26 44 l21 13 12 -12 c6 -6 16 -32 21 -58 l11 -47 39 2
c22 2 41 7 43 13 2 5 12 10 23 10 l19 0 0 -20 0 -20 55 0 54 0 10 18 10 17 29
-17 c17 -10 39 -18 50 -18 23 0 46 24 40 42 -4 12 19 45 26 37 2 -2 8 -17 13
-34 l10 -30 33 -3 34 -4 13 18 c7 10 13 32 13 50 l0 32 -12 5 -13 5 19 1 18 1
-4 25 c-3 14 -1 25 3 25 14 0 10 38 -3 43 l-13 5 18 1 17 1 0 19 c0 11 -6 22
-12 24 l-13 5 19 1 18 1 -4 30 c-3 17 -1 30 4 30 9 0 11 51 2 74 l-6 16 -32 0
c-18 0 -37 -5 -44 -12 l-12 -12 -12 12 c-7 7 -30 12 -51 12 l-39 0 -5 -19 -5
-18 -23 23 -24 24 -34 0 -35 0 -21 -17 -21 -18 -21 -115 c-11 -63 -23 -125
-25 -137 -2 -13 -11 -23 -18 -23 -20 0 -26 32 -26 138 l0 92 -9 0 c-5 0 -7 9
-4 20 3 11 0 27 -7 35 l-13 16 -51 -1 c-28 -1 -76 1 -106 4 -30 2 -64 2 -75
-1z m175 -163 l0 -110 15 0 c16 0 19 -17 9 -44 -9 -25 -24 -19 -24 9 0 14 -8
33 -18 43 l-19 19 10 24 c5 13 7 57 4 97 l-4 72 14 0 13 0 0 -110z m459 48
c-4 -29 -8 -63 -8 -75 -1 -13 -4 -23 -8 -23 -5 0 -8 34 -8 75 l0 75 16 0 15 0
-7 -52z m-552 29 c4 -8 16 -16 26 -20 l17 -6 0 -26 0 -25 -15 0 c-9 0 -20 -11
-25 -25 -5 -14 -16 -25 -25 -25 l-15 0 0 70 0 70 15 0 c7 0 18 -6 22 -13z
m460 -19 c-3 -7 -5 -2 -5 12 0 14 2 19 5 13 2 -7 2 -19 0 -25z m-104 -65 l5
-83 -14 0 -14 0 0 48 c0 45 10 126 15 120 1 -2 5 -40 8 -85z m114 25 l-5 -13
-1 19 c-1 11 2 17 5 13 3 -3 4 -12 1 -19z m-50 -50 c-3 -7 -5 -2 -5 12 0 14 2
19 5 13 2 -7 2 -19 0 -25z m60 10 l-5 -13 -1 19 c-1 11 2 17 5 13 3 -3 4 -12
1 -19z m10 -45 c-4 -3 -7 0 -7 7 0 7 3 10 7 7 3 -4 3 -10 0 -14z m-190 -9 c-3
-3 -12 -4 -19 -1 l-13 5 19 1 c11 1 17 -2 13 -5z m5 -46 l-11 -11 6 24 7 23 4
-13 c2 -7 -1 -18 -6 -23z m234 -34 c-8 -39 -26 -46 -26 -9 0 14 5 25 10 25 6
0 10 10 11 23 l1 22 5 -13 c3 -7 2 -29 -1 -48z m-253 -8 l6 -14 -20 5 c-22 6
-26 23 -5 23 8 0 16 -6 19 -14z m87 -5 l0 -18 -25 5 c-14 2 -25 11 -25 18 l0
14 25 0 25 0 0 -19z m-170 -14 l25 -5 -34 1 -34 2 -5 15 -5 15 14 -12 c8 -6
25 -13 39 -16z m47 -29 l-5 -13 -1 19 c-1 11 2 17 5 13 3 -3 4 -12 1 -19z" />
  </g>
  <g transform="translate(0.000000,500.000000) scale(0.100000,-0.100000)" fill="#fe9bd8" stroke="none">
    <path d="M2470 3200 l0 -10 40 0 40 0 0 10 0 10 -40 0 -40 0 0 -10z" />
    <path d="M2430 3190 c0 -5 7 -10 15 -10 8 0 15 5 15 10 0 6 -7 10 -15 10 -8 0
-15 -4 -15 -10z" />
    <path d="M2370 3154 l0 -16 15 12 c8 7 15 14 15 16 0 2 -7 4 -15 4 -8 0 -15
-7 -15 -16z" />
    <path d="M2650 3166 c0 -3 14 -14 30 -26 l30 -21 0 15 c0 9 -7 16 -15 16 -8 0
-15 5 -15 10 0 6 -7 10 -15 10 -8 0 -15 -2 -15 -4z" />
    <path d="M2296 3074 c-11 -28 -6 -39 9 -20 8 11 15 23 15 28 0 14 -18 9 -24
-8z" />
    <path d="M2280 3015 c0 -8 5 -15 10 -15 6 0 10 7 10 15 0 8 -4 15 -10 15 -5 0
-10 -7 -10 -15z" />
    <path d="M2810 3016 c0 -2 7 -9 15 -16 l15 -12 0 16 c0 9 -7 16 -15 16 -8 0
-15 -2 -15 -4z" />
    <path d="M2860 2956 c0 -2 7 -9 15 -16 l15 -12 0 16 c0 9 -7 16 -15 16 -8 0
-15 -2 -15 -4z" />
    <path d="M2280 2935 c0 -8 5 -15 10 -15 6 0 10 7 10 15 0 8 -4 15 -10 15 -5 0
-10 -7 -10 -15z" />
    <path d="M2370 2795 c0 -8 7 -15 16 -15 l16 0 -12 15 c-7 8 -14 15 -16 15 -2
0 -4 -7 -4 -15z" />
    <path d="M3030 2791 c0 -6 5 -13 10 -16 l10 -6 0 15 c0 9 -4 16 -10 16 -5 0
-10 -4 -10 -9z" />
    <path d="M2360 2754 l0 -16 15 12 c8 7 15 14 15 16 0 2 -7 4 -15 4 -8 0 -15
-7 -15 -16z" />
    <path d="M3050 2745 l-12 -15 16 0 c9 0 16 7 16 15 0 8 -2 15 -4 15 -2 0 -9
-7 -16 -15z" />
    <path d="M2966 2681 c-4 -7 -5 -15 -2 -18 9 -9 19 4 14 18 l-4 13 -8 -13z" />
    <path d="M2280 2654 l0 -15 10 6 c6 3 10 10 10 16 0 5 -4 9 -10 9 -5 0 -10 -7
-10 -16z" />
    <path d="M2730 2445 l-12 -15 16 0 c9 0 16 7 16 15 0 8 -2 15 -4 15 -2 0 -9
-7 -16 -15z" />
    <path d="M2320 2431 c0 -17 28 -43 41 -39 l10 3 -25 24 -26 24 0 -12z" />
    <path d="M2615 2370 l-6 -10 15 0 c9 0 16 5 16 10 0 6 -4 10 -9 10 -6 0 -13
-4 -16 -10z" />
    <path d="M2410 2360 c0 -5 7 -10 15 -10 8 0 15 5 15 10 0 6 -7 10 -15 10 -8 0
-15 -4 -15 -10z" />
    <path d="M2540 2350 c0 -5 9 -10 20 -10 11 0 20 5 20 10 0 6 -9 10 -20 10 -11
0 -20 -4 -20 -10z" />
    <path d="M2228 2038 l-18 -22 0 -64 0 -63 10 6 c6 3 13 -1 16 -9 3 -9 10 -13
15 -10 5 3 9 -2 9 -11 0 -9 -4 -14 -9 -10 l-10 5 -3 -27 -3 -28 -14 3 -13 3 3
-74 4 -74 17 -16 c17 -18 55 -22 74 -9 5 4 17 25 25 47 l15 40 19 0 19 0 16
-45 15 -44 25 -7 c32 -9 118 -9 150 0 l25 7 -24 13 -23 13 6 -11 7 -11 -15 0
-15 0 5 14 c3 8 0 17 -5 21 -6 3 -9 11 -6 16 l6 9 -31 0 -31 0 6 -10 6 -10
-15 6 c-9 3 -16 14 -16 23 -1 9 -1 82 0 164 l1 147 -16 0 c-8 0 -17 0 -20 0
-3 0 -4 -3 -2 -7 1 -5 5 -7 10 -5 4 1 7 -43 7 -99 l0 -100 -10 6 -10 6 0 -55
c0 -30 -4 -58 -10 -61 l-10 -6 0 24 c0 27 -14 41 -48 50 l-22 5 6 -9 c3 -5 -2
-12 -10 -15 -9 -3 -16 -13 -16 -21 l0 -14 -11 7 -12 7 7 -26 c3 -14 3 -33 0
-41 l-6 -16 -28 0 -28 0 -6 23 c-3 12 -5 31 -5 42 l1 20 5 -13 c2 -6 9 -10 14
-6 5 3 9 -2 9 -11 l0 -16 -11 7 -12 7 5 -14 c6 -19 37 -24 52 -8 l11 12 -13
-7 -13 -8 2 66 2 65 9 -5 c4 -3 5 -11 2 -17 l-7 -12 13 12 13 12 -11 14 c-7 8
-9 17 -5 21 4 4 1 4 -8 1 l-15 -6 4 96 4 95 -11 0 c-6 0 -11 -6 -11 -12 l0
-13 -10 15 -10 15 0 -19 c0 -11 -3 -17 -6 -13 -3 3 -3 15 1 26 l6 21 23 -6 23
-5 0 15 0 16 -21 0 c-12 0 -29 -10 -38 -22z m32 -125 l0 -27 -11 11 c-7 7 -9
19 -6 27 10 24 17 19 17 -11z m0 -165 l0 -22 -11 11 c-6 6 -8 16 -5 22 11 17
16 13 16 -11z m211 -78 c11 0 18 -4 15 -9 -8 -12 -55 -11 -62 1 -4 6 0 14 7
19 l14 8 3 -9 c2 -6 13 -10 23 -10z" />
    <path d="M2342 2027 c-1 -15 -3 -32 -5 -37 -1 -4 1 -8 6 -9 24 -3 34 1 46 22
l14 22 -16 -13 -15 -13 -8 12 -7 12 11 -7 c6 -3 13 -2 17 4 4 6 11 8 16 4 5
-3 15 -1 22 4 13 11 46 10 64 -1 l12 -8 -6 -31 -6 -31 11 7 12 7 0 -93 c0 -51
3 -103 6 -115 l6 -23 24 0 24 0 4 23 c3 12 8 43 11 70 l6 47 9 -5 10 -6 -7 32
-6 32 12 -7 12 -8 -6 35 -7 35 19 -1 c10 -1 21 -6 25 -12 l8 -10 0 16 c0 19
26 33 35 19 9 -15 25 -12 25 5 l0 16 -45 -2 c-25 -2 -45 -7 -45 -13 0 -5 -3
-6 -6 -3 -10 10 16 36 30 31 l13 -5 0 16 0 16 -21 -3 -21 -3 -18 -37 c-10 -21
-27 -66 -37 -100 l-18 -63 -5 15 c-3 8 -13 51 -21 94 -8 44 -21 83 -28 87 -6
4 -44 7 -83 6 l-71 -1 -2 -29z m35 6 c-4 -3 -10 -3 -14 0 -3 4 0 7 7 7 7 0 10
-3 7 -7z" />
    <path d="M2703 2045 l0 -15 16 2 16 3 -3 -13 -2 -13 10 6 c5 3 10 2 10 -3 0
-5 9 -12 20 -15 l19 -5 -2 21 -2 22 35 0 35 0 -3 -15 c-2 -8 0 -12 3 -8 4 4
16 3 26 -2 l18 -10 7 12 7 11 -14 -8 -14 -8 13 14 c17 19 54 18 69 -1 l12 -15
1 22 0 21 -28 7 c-16 3 -40 2 -54 -4 l-25 -9 -14 9 c-20 13 -73 11 -87 -3
l-12 -12 -12 12 c-17 17 -45 15 -45 -3z" />
    <path d="M2290 2011 c0 -6 4 -13 10 -16 l10 -6 -6 15 c-7 18 -14 21 -14 7z" />
    <path d="M2810 2011 c0 -5 -3 -17 -7 -27 l-6 -17 13 8 13 8 -7 -39 -6 -39 16
20 17 20 -7 -17 c-3 -10 -9 -25 -12 -33 l-6 -15 15 6 15 5 4 34 4 34 -10 -2
c-6 -1 -10 13 -10 31 l0 32 -13 0 c-7 0 -13 -4 -13 -9z" />
    <path d="M2923 2000 c-3 -11 -9 -17 -14 -14 l-9 5 7 -32 6 -32 -11 7 -12 7 0
-16 0 -16 10 6 10 6 0 -16 0 -16 -12 7 -13 8 15 -18 14 -18 8 28 c5 16 6 40 3
52 l-6 24 10 -6 10 -6 -1 30 c-1 35 -8 39 -15 10z" />
    <path d="M2690 1954 c0 -14 4 -23 9 -20 4 3 11 -24 15 -59 4 -36 10 -73 13
-82 l7 -18 -20 15 c-10 8 -16 11 -12 6 4 -5 2 -18 -4 -29 l-10 -20 14 5 14 6
-4 -32 c-6 -39 -18 -56 -40 -51 l-17 3 -12 -24 -11 -24 10 0 c5 0 18 5 28 10
l19 10 6 -10 c3 -5 16 -10 28 -10 l22 0 -23 18 -24 18 15 13 15 12 5 -18 5
-18 1 20 1 20 11 -15 11 -15 -6 25 c-3 14 -6 35 -6 48 0 13 -3 21 -7 19 -5 -3
-8 14 -9 36 -1 23 -5 75 -9 115 l-8 72 -13 0 -14 0 0 -26z m45 -234 c3 -5 1
-10 -4 -10 -6 0 -11 5 -11 10 0 6 2 10 4 10 3 0 8 -4 11 -10z" />
    <path d="M2955 1943 l6 -33 -13 2 c-14 3 -14 -5 -2 -36 l7 -19 -13 8 -13 8 6
-32 7 -32 -12 7 -11 7 6 -32 7 -32 -10 6 c-6 3 -10 0 -10 -7 0 -22 12 -58 19
-58 7 0 51 222 51 256 l0 21 -16 0 -16 0 7 -34z" />
    <path d="M2355 1958 c-4 -9 -5 -33 -3 -54 l3 -39 20 0 20 0 -3 40 c-2 22 -10
46 -17 54 l-14 15 -6 -16z" />
    <path d="M2639 1932 l5 -37 4 29 c2 16 0 32 -5 37 l-9 9 5 -38z" />
    <path d="M2637 1873 c-4 -3 -7 -15 -7 -25 l0 -19 -10 6 -10 6 0 -20 c0 -10 4
-21 10 -23 l9 -3 -5 -22 c-4 -13 -10 -20 -15 -17 -12 7 -11 -37 0 -55 l9 -14
11 8 c7 4 11 16 9 28 l-3 22 15 0 14 0 0 25 c0 14 -4 32 -8 39 -5 8 -9 27 -8
42 1 31 -1 33 -11 22z" />
    <path d="M2841 1873 c-1 -6 -4 -19 -8 -29 l-6 -17 11 7 12 7 0 -18 0 -18 10
15 c12 19 13 53 1 46 -5 -4 -12 0 -14 6 l-5 13 -1 -12z" />
    <path d="M2901 1844 l1 -19 5 13 c3 7 2 16 -1 19 -3 4 -6 -2 -5 -13z" />
    <path d="M2339 1840 c-1 -3 -1 -8 0 -12 0 -5 -4 -8 -11 -8 -6 0 -9 -2 -6 -5 3
-3 18 1 33 9 16 8 32 13 37 10 4 -3 8 0 8 6 l0 10 -30 -2 c-16 -1 -31 -5 -31
-8z" />
    <path d="M2365 1810 c3 -5 8 -10 11 -10 3 0 2 5 -1 10 -3 6 -8 10 -11 10 -3 0
-2 -4 1 -10z" />
    <path d="M2867 1803 c-4 -3 -10 -28 -13 -55 -4 -27 -10 -51 -15 -53 -4 -3 -10
8 -14 25 -4 16 -10 30 -15 30 -4 0 -11 -11 -14 -25 l-6 -24 -15 5 -15 6 9 -24
9 -25 -16 -17 -16 -16 16 0 c9 0 24 10 32 22 l16 22 16 -22 15 -22 33 0 c17 0
37 5 44 12 16 16 15 45 -2 45 -7 0 -13 -7 -12 -16 l1 -16 -29 0 c-37 0 -44 18
-13 32 l23 11 3 56 c2 51 -5 67 -22 49z" />
    <path d="M2870 1669 c0 -5 5 -7 10 -4 6 3 10 8 10 11 0 2 -4 4 -10 4 -5 0 -10
-5 -10 -11z" />
  </g>
  <g transform="translate(0.000000,500.000000) scale(0.100000,-0.100000)" fill="#fed2ee" stroke="none">
    <path d="M2418 3188 c-27 -9 -39 -28 -18 -28 6 0 10 5 10 11 0 5 4 8 9 4 5 -3
12 -1 16 5 4 6 10 8 15 5 5 -3 11 -1 15 5 8 12 -11 12 -47 -2z" />
    <path d="M2575 3190 c3 -5 10 -10 16 -10 5 0 9 5 9 10 0 6 -7 10 -16 10 l-15
0 6 -10z" />
    <path d="M2347 3142 c-10 -10 -17 -25 -17 -32 l0 -13 25 23 c25 24 32 40 17
40 -5 0 -16 -8 -25 -18z" />
    <path d="M2670 3150 c0 -5 5 -10 10 -10 6 0 10 5 10 10 0 6 -4 10 -10 10 -5 0
-10 -4 -10 -10z" />
    <path d="M2700 3130 c0 -5 5 -10 10 -10 6 0 10 5 10 10 0 6 -4 10 -10 10 -5 0
-10 -4 -10 -10z" />
    <path d="M2780 3052 c0 -5 9 -17 20 -27 l20 -18 0 14 c0 16 -19 39 -32 39 -4
0 -8 -4 -8 -8z" />
    <path d="M2280 2975 c0 -19 4 -35 9 -35 5 0 9 16 9 35 0 19 -4 35 -9 35 -5 0
-9 -16 -9 -35z" />
    <path d="M2840 2982 c0 -5 7 -16 16 -23 l16 -13 -3 18 c-4 20 -29 35 -29 18z" />
    <path d="M2290 2908 c1 -7 7 -24 14 -37 l13 -24 7 12 7 11 -11 0 c-6 0 -8 5
-5 10 3 6 1 10 -5 10 -6 0 -9 4 -5 9 3 5 1 12 -5 16 -5 3 -10 0 -10 -7z" />
    <path d="M2900 2912 c0 -13 109 -116 116 -109 4 3 -18 31 -47 62 -52 52 -69
64 -69 47z" />
    <path d="M2330 2840 c0 -17 39 -55 47 -46 3 2 -7 17 -21 33 l-26 28 0 -15z" />
    <path d="M2390 2780 c0 -5 5 -10 10 -10 6 0 10 5 10 10 0 6 -4 10 -10 10 -5 0
-10 -4 -10 -10z" />
    <path d="M3040 2783 c0 -4 7 -17 15 -27 17 -23 34 -13 19 11 -12 19 -34 29
-34 16z" />
    <path d="M2345 2749 c-4 -6 -5 -13 -2 -16 7 -7 27 6 27 18 0 12 -17 12 -25 -2z" />
    <path d="M3025 2730 l-6 -10 15 0 c9 0 16 5 16 10 0 6 -4 10 -9 10 -6 0 -13
-4 -16 -10z" />
    <path d="M2310 2710 c0 -5 5 -10 10 -10 6 0 10 5 10 10 0 6 -4 10 -10 10 -5 0
-10 -4 -10 -10z" />
    <path d="M2979 2694 l-13 -16 18 3 c11 2 21 10 24 17 5 17 -13 15 -29 -4z" />
    <path d="M2270 2614 l0 -15 10 6 c6 3 10 10 10 16 0 5 -4 9 -10 9 -5 0 -10 -7
-10 -16z" />
    <path d="M2270 2536 c0 -9 5 -16 10 -16 6 0 10 4 10 9 0 6 -4 13 -10 16 l-10
6 0 -15z" />
    <path d="M2290 2476 c0 -9 5 -16 10 -16 6 0 10 4 10 9 0 6 -4 13 -10 16 l-10
6 0 -15z" />
    <path d="M2690 2410 c0 -5 5 -10 10 -10 6 0 10 5 10 10 0 6 -4 10 -10 10 -5 0
-10 -4 -10 -10z" />
    <path d="M2425 2360 l-6 -10 16 0 16 0 -6 10 c-3 6 -8 10 -10 10 -2 0 -7 -4
-10 -10z" />
    <path d="M2460 2349 c0 -5 18 -9 40 -9 22 0 40 4 40 9 0 4 -18 8 -40 8 -22 0
-40 -4 -40 -8z" />
    <path d="M2304 2101 c-27 -3 -62 -14 -77 -24 -15 -9 -35 -34 -44 -55 l-18 -37
1 -135 1 -135 22 -42 c11 -23 31 -48 43 -54 l21 -11 61 5 60 5 27 -14 c15 -7
51 -16 81 -20 66 -8 383 13 419 27 35 14 70 64 81 113 35 166 40 272 16 318
-5 10 -22 25 -39 33 l-30 16 -47 -2 c-26 0 -58 2 -71 6 l-24 8 5 -9 6 -9 -56
-1 c-32 0 -83 -4 -115 -8 l-57 -7 5 -10 c4 -5 -1 -9 -10 -9 l-16 0 7 12 7 11
-21 -5 c-12 -4 -20 -2 -17 2 7 11 -79 24 -100 16 l-16 -6 6 11 7 10 -37 -7
-38 -7 7 12 c4 6 6 10 4 10 -2 -1 -26 -5 -54 -8z m185 -61 c9 -4 23 -20 31
-34 l13 -26 23 0 c22 0 32 7 67 49 l17 21 153 -4 c83 -3 157 -5 164 -5 l12 -1
6 -43 7 -44 -15 -74 c-25 -123 -49 -213 -58 -224 -5 -5 -56 -10 -113 -11 -57
-1 -144 -7 -193 -14 l-88 -12 -42 11 -42 12 -21 29 -21 30 -30 0 -29 0 -12
-25 c-6 -14 -22 -28 -35 -31 l-23 -6 -14 11 c-23 19 -36 94 -36 211 l0 111 15
34 c8 20 24 40 37 45 l23 10 94 -5 c51 -3 101 -10 110 -15z" />
    <path d="M2835 2100 c3 -5 11 -10 16 -10 6 0 7 5 4 10 -3 6 -11 10 -16 10 -6
0 -7 -4 -4 -10z" />
  </g>
  <g transform="translate(0.000000,500.000000) scale(0.100000,-0.100000)" fill="#f979c5" stroke="none">
    <path d="M2460 3200 c0 -5 4 -10 9 -10 6 0 13 5 16 10 l6 10 -15 0 c-9 0 -16
-4 -16 -10z" />
    <path d="M2535 3200 c3 -5 10 -10 16 -10 5 0 9 5 9 10 0 6 -7 10 -16 10 l-15
0 6 -10z" />
    <path d="M2590 3190 c0 -5 7 -10 15 -10 8 0 15 5 15 10 0 6 -7 10 -15 10 -8 0
-15 -4 -15 -10z" />
    <path d="M2745 3090 c20 -22 31 -20 22 5 -4 8 -14 15 -23 15 l-17 0 18 -20z" />
    <path d="M2280 3024 l0 -15 10 6 c6 3 10 10 10 16 0 5 -4 9 -10 9 -5 0 -10 -7
-10 -16z" />
    <path d="M2830 3001 c0 -5 5 -13 10 -16 6 -3 10 -2 10 4 0 5 -4 13 -10 16 -5
3 -10 2 -10 -4z" />
    <path d="M2880 2941 c0 -6 5 -13 10 -16 l10 -6 0 15 c0 9 -4 16 -10 16 -5 0
-10 -4 -10 -9z" />
    <path d="M2280 2926 c0 -9 5 -16 10 -16 6 0 10 4 10 9 0 6 -4 13 -10 16 l-10
6 0 -15z" />
    <path d="M3050 2776 c0 -2 7 -9 15 -16 l15 -12 0 16 c0 9 -7 16 -15 16 -8 0
-15 -2 -15 -4z" />
    <path d="M2935 2650 l-6 -10 15 0 c9 0 16 5 16 10 0 6 -4 10 -9 10 -6 0 -13
-4 -16 -10z" />
    <path d="M2270 2635 c0 -8 5 -15 10 -15 6 0 10 7 10 15 0 8 -4 15 -10 15 -5 0
-10 -7 -10 -15z" />
    <path d="M2861 2576 c-8 -9 -11 -19 -7 -23 9 -9 29 13 24 27 l-4 12 -13 -16z" />
    <path d="M2270 2515 c0 -8 5 -15 10 -15 6 0 10 7 10 15 0 8 -4 15 -10 15 -5 0
-10 -7 -10 -15z" />
    <path d="M2290 2468 c0 -10 5 -18 10 -18 6 0 10 -7 10 -15 0 -8 5 -15 10 -15
16 0 12 16 -10 41 l-19 24 -1 -17z" />
    <path d="M2715 2430 l-6 -10 15 0 c9 0 16 5 16 10 0 6 -4 10 -9 10 -6 0 -13
-4 -16 -10z" />
    <path d="M2350 2390 c0 -5 7 -10 16 -10 l15 0 -6 10 c-3 6 -10 10 -16 10 -5 0
-9 -4 -9 -10z" />
    <path d="M2590 2360 c0 -5 7 -10 15 -10 8 0 15 5 15 10 0 6 -7 10 -15 10 -8 0
-15 -4 -15 -10z" />
    <path d="M2915 2040 c3 -5 8 -10 11 -10 3 0 2 5 -1 10 -3 6 -8 10 -11 10 -3 0
-2 -4 1 -10z" />
    <path d="M2940 2039 c0 -5 5 -7 10 -4 6 3 10 8 10 11 0 2 -4 4 -10 4 -5 0 -10
-5 -10 -11z" />
    <path d="M2308 2030 c58 -9 82 -23 82 -51 0 -24 17 -33 23 -12 3 10 5 -20 4
-67 l0 -85 -7 40 c-8 44 -10 44 -15 1 -5 -39 -26 -58 -66 -61 l-34 -2 -3 -47
-3 -46 10 0 c5 0 11 14 13 32 l3 32 42 12 43 13 10 -19 c5 -10 10 -34 10 -54
0 -19 5 -38 10 -41 l10 -6 0 182 0 181 -14 -11 -13 -11 -29 15 -29 15 -50 -1
-50 -1 53 -8z" />
    <path d="M2453 2033 c4 -3 10 -3 14 0 3 4 0 7 -7 7 -7 0 -10 -3 -7 -7z" />
    <path d="M2668 2033 c12 -2 30 -2 40 0 9 3 -1 5 -23 4 l-40 0 23 -4z" />
    <path d="M2813 2033 c4 -3 10 -3 14 0 3 4 0 7 -7 7 -7 0 -10 -3 -7 -7z" />
    <path d="M2236 1998 c-8 -32 -5 -257 4 -293 l8 -30 1 173 c0 94 -1 172 -3 172
-2 0 -6 -10 -10 -22z" />
    <path d="M2626 2003 c-4 -13 -46 -274 -46 -288 0 -6 -56 9 -67 18 l-13 9 0
131 0 131 -10 -10 -11 -11 3 -144 3 -144 42 -3 42 -3 3 -19 3 -19 12 7 12 7
21 174 c12 95 19 175 17 178 -3 2 -8 -4 -11 -14z" />
    <path d="M2731 1985 c-1 -52 35 -304 44 -313 7 -7 -1 206 -9 230 -3 7 -7 27
-10 43 -2 17 -9 41 -14 55 l-11 25 0 -40z" />
    <path d="M2787 2013 c-14 -13 -6 -71 23 -178 16 -60 30 -120 30 -132 0 -13 5
-23 10 -23 6 0 10 13 10 28 0 26 -57 302 -64 309 -1 2 -6 0 -9 -4z" />
    <path d="M2852 1985 l3 -40 13 3 12 2 0 -20 c0 -11 -5 -20 -11 -20 l-10 0 3
-42 3 -41 13 -5 13 -4 -7 26 -6 26 12 15 12 15 -4 30 c-3 17 -1 33 4 36 4 3 8
16 8 30 l0 24 -20 -12 -21 -13 -10 15 -10 15 3 -40z" />
    <path d="M2296 1993 c-3 -4 -6 -42 -6 -85 l0 -78 10 0 c6 0 10 14 10 30 l0 30
15 0 c8 0 15 -7 15 -16 l0 -15 10 6 c14 9 12 88 -2 107 -15 18 -43 29 -52 21z
m44 -44 c0 -5 -7 -9 -15 -9 l-15 0 0 21 0 21 15 -12 c8 -7 15 -16 15 -21z" />
    <path d="M2675 1967 l7 -25 -11 -6 c-6 -4 -11 -27 -11 -52 l0 -44 10 0 c6 0
10 16 10 35 l0 35 11 0 10 0 -3 37 -3 36 -13 5 -13 4 6 -25z" />
    <path d="M2936 1905 c-10 -49 -22 -100 -27 -113 -5 -13 -8 -44 -8 -70 l1 -47
29 140 c16 77 28 149 26 160 -1 11 -11 -20 -21 -70z" />
    <path d="M2690 1826 c0 -20 5 -36 10 -36 6 0 10 13 10 29 0 17 -4 33 -10 36
l-10 6 0 -35z" />
    <path d="M2320 1840 c0 -5 4 -10 9 -10 6 0 13 5 16 10 l6 10 -15 0 c-9 0 -16
-4 -16 -10z" />
    <path d="M2656 1811 c-4 -7 -5 -15 -2 -18 9 -9 19 4 14 18 l-4 13 -8 -13z" />
    <path d="M2657 1752 c-2 -4 -4 -27 -5 -52 l-1 -45 9 23 c5 12 13 22 18 22 5 0
17 -10 26 -22 l16 -23 -3 50 -2 50 -27 2 c-15 1 -29 -1 -31 -5z m40 -18 c-3
-3 -12 -4 -19 -1 l-13 5 19 1 c11 1 17 -2 13 -5z" />
    <path d="M2447 1646 l-6 -15 52 6 c29 3 56 9 62 14 l9 9 -56 0 -56 0 -5 -14z" />
  </g>
  <g transform="translate(0.000000,500.000000) scale(0.100000,-0.100000)" fill="#71d3df" stroke="none">
    <path d="M2498 3477 c-38 -5 -68 -14 -68 -19 l0 -11 48 7 c26 3 71 9 100 12
28 4 52 11 52 15 0 11 -42 10 -132 -4z" />
    <path d="M2664 3471 c3 -4 25 -11 48 -15 71 -11 123 -29 223 -77 l69 -34 71
-71 c79 -80 95 -99 95 -113 0 -5 5 -11 11 -13 5 -2 11 -11 12 -20 2 -9 8 -22
14 -30 19 -22 54 -119 69 -188 18 -82 18 -185 0 -275 -14 -74 -51 -173 -71
-190 -6 -5 -15 -21 -18 -35 -8 -33 -116 -151 -173 -190 -67 -45 -123 -72 -135
-64 l-11 6 52 26 c53 26 210 167 210 188 0 7 4 14 8 16 9 3 92 165 92 179 0 5
-3 9 -8 9 -4 0 -23 -36 -42 -80 -19 -44 -38 -80 -42 -80 -5 0 -8 -7 -8 -15 0
-8 -4 -15 -10 -15 -5 0 -10 -6 -11 -12 -1 -16 -143 -142 -184 -165 -64 -34
-102 -51 -162 -72 l-63 -22 -112 4 c-62 3 -128 8 -147 12 -18 4 -72 27 -120
50 l-86 43 -68 62 c-37 34 -71 59 -75 56 -7 -7 65 -80 122 -124 16 -12 26 -25
23 -28 -10 -10 -103 63 -160 127 -67 73 -122 177 -148 277 l-19 75 0 104 0
103 -10 0 -10 0 0 -101 0 -100 16 -72 c9 -40 34 -109 57 -155 l41 -83 64 -70
c70 -76 153 -137 229 -170 25 -11 87 -29 137 -40 l90 -20 106 6 c58 4 134 13
170 22 80 19 180 66 221 104 17 16 35 29 39 29 13 0 120 120 120 136 0 8 4 14
9 14 15 0 77 131 97 205 l19 70 -1 130 -1 130 -27 80 c-29 87 -99 213 -122
222 -8 3 -14 11 -14 18 0 14 -106 115 -121 115 -6 0 -19 9 -31 19 -30 28 -118
68 -201 91 -75 21 -132 26 -123 11z m-371 -1295 c18 -14 22 -26 10 -26 -5 0
-19 9 -33 20 l-25 20 15 -1 c8 0 23 -6 33 -13z m67 -36 c0 -5 -4 -10 -10 -10
-5 0 -10 5 -10 10 0 6 5 10 10 10 6 0 10 -4 10 -10z m490 0 c0 -5 -7 -10 -16
-10 l-15 0 6 10 c3 6 10 10 16 10 5 0 9 -4 9 -10z" />
    <path d="M2340 3437 c-124 -51 -207 -113 -307 -228 -37 -43 -101 -170 -117
-234 -9 -32 -16 -64 -16 -70 1 -20 30 29 30 50 0 12 4 25 8 31 4 5 14 27 21
48 24 71 84 160 151 226 37 36 73 70 82 76 20 15 143 78 191 98 37 15 48 26
25 26 -7 0 -38 -11 -68 -23z" />
    <path d="M2451 3419 c-13 -5 -22 -11 -19 -14 7 -8 108 7 108 16 0 12 -59 10
-89 -2z" />
    <path d="M2660 3422 c0 -4 26 -12 58 -18 94 -18 171 -54 279 -129 26 -18 93
-87 93 -96 0 -5 9 -14 20 -21 11 -7 20 -18 20 -25 0 -6 3 -13 8 -15 13 -5 71
-141 83 -195 7 -29 16 -53 21 -53 11 0 10 33 -1 62 -5 13 -19 50 -32 83 -48
128 -166 265 -286 332 -99 55 -263 102 -263 75z" />
    <path d="M2380 3395 l-12 -15 10 0 c18 0 42 12 42 21 0 14 -26 10 -40 -6z" />
    <path d="M2317 3374 c-16 -9 -26 -18 -23 -21 7 -8 66 17 66 28 0 12 -10 11
-43 -7z" />
    <path d="M2240 3332 c-55 -36 -152 -127 -181 -168 -34 -50 -89 -151 -89 -165
0 -25 19 -2 52 64 48 94 106 161 191 222 37 27 67 53 67 57 0 12 -12 9 -40
-10z" />
    <path d="M1962 2968 c-14 -14 -16 -38 -3 -38 10 0 26 39 19 46 -2 2 -10 -2
-16 -8z" />
    <path d="M1939 2889 l-11 -21 4 -108 c1 -60 8 -114 13 -119 l10 -10 0 139 c0
77 -1 140 -2 140 -1 0 -7 -9 -14 -21z" />
    <path d="M3230 2653 c0 -10 -3 -29 -7 -43 l-6 -25 16 14 17 13 0 29 c0 16 -4
29 -10 29 -5 0 -10 -8 -10 -17z" />
    <path d="M1950 2611 c0 -18 21 -64 26 -58 9 8 -6 67 -17 67 -5 0 -9 -4 -9 -9z" />
    <path d="M1970 2537 c0 -2 8 -19 17 -38 l17 -34 4 17 c4 20 -15 58 -28 58 -6
0 -10 -2 -10 -3z" />
    <path d="M2010 2455 c0 -3 12 -24 27 -46 l27 -41 4 12 c3 7 0 15 -4 19 -5 3
-15 18 -21 34 -7 15 -17 27 -23 27 -5 0 -10 -2 -10 -5z" />
  </g>
  <g transform="translate(0.000000,500.000000) scale(0.100000,-0.100000)" fill="#ea249f" stroke="none">
    <path d="M2510 3400 l0 -10 85 0 85 0 0 10 0 10 -85 0 -85 0 0 -10z" />
    <path d="M2415 3389 c-12 -19 5 -23 22 -6 l17 17 -16 0 c-9 0 -20 -5 -23 -11z" />
    <path d="M2734 3385 c22 -17 46 -20 46 -6 0 10 -25 21 -48 21 l-17 -1 19 -14z" />
    <path d="M2355 3370 c-3 -5 -14 -10 -24 -10 -53 0 -249 -169 -286 -246 l-17
-36 10 -10 10 -10 11 34 c6 18 37 60 69 93 93 96 167 150 221 161 8 1 21 10
30 18 l15 16 -16 0 c-9 0 -20 -4 -23 -10z" />
    <path d="M2790 3376 c0 -9 72 -46 89 -46 10 0 32 -13 49 -30 33 -31 57 -39 50
-17 -3 6 -14 16 -26 22 -12 5 -22 13 -22 17 0 9 -105 58 -125 58 -8 0 -15 -2
-15 -4z" />
    <path d="M2385 3330 c3 -5 8 -10 11 -10 2 0 4 5 4 10 0 6 -5 10 -11 10 -5 0
-7 -4 -4 -10z" />
    <path d="M2428 3323 c7 -3 16 -2 19 1 4 3 -2 6 -13 5 l-19 -1 13 -5z" />
    <path d="M2320 3276 c0 -9 5 -16 10 -16 6 0 10 4 10 9 0 6 -4 13 -10 16 l-10
6 0 -15z" />
    <path d="M2433 3273 c4 -3 10 -3 14 0 3 4 0 7 -7 7 -7 0 -10 -3 -7 -7z" />
    <path d="M2990 3264 c0 -3 23 -27 50 -54 28 -27 50 -51 50 -55 0 -3 9 -15 20
-27 11 -12 20 -28 20 -35 0 -7 5 -13 10 -13 6 0 10 -9 10 -20 0 -11 5 -20 11
-20 l11 0 -5 -19 -5 -20 14 -5 14 -5 0 -35 0 -34 15 -6 15 -5 0 17 c0 9 -6 33
-14 52 -7 19 -19 50 -25 68 -7 17 -17 32 -21 32 -4 0 -11 11 -14 24 -3 14 -26
45 -51 71 -25 25 -45 49 -45 54 0 5 -9 13 -20 16 -11 3 -20 11 -20 16 0 5 -4
9 -10 9 -5 0 -10 -3 -10 -6z" />
    <path d="M2865 3230 c3 -5 8 -10 11 -10 2 0 4 5 4 10 0 6 -5 10 -11 10 -5 0
-7 -4 -4 -10z" />
    <path d="M2404 3191 c-50 -27 -97 -79 -116 -129 -19 -50 -24 -121 -9 -150 5
-9 15 -30 22 -46 8 -16 26 -43 42 -59 l27 -30 -11 -13 c-6 -8 -18 -14 -25 -14
-8 0 -20 -15 -28 -34 -8 -18 -19 -37 -25 -40 -15 -9 -14 -56 1 -56 6 0 9 3 5
6 -10 10 33 82 69 113 19 17 34 34 34 38 0 4 -16 25 -36 45 -44 47 -64 95 -64
153 0 62 23 112 74 160 40 38 109 70 128 59 4 -3 8 0 8 5 l0 11 -32 -1 c-18
-1 -47 -9 -64 -18z" />
    <path d="M2544 3201 c4 -6 17 -11 29 -11 31 0 117 -46 158 -84 32 -30 79 -81
142 -157 56 -66 126 -136 161 -160 20 -13 36 -27 36 -31 0 -4 -10 -13 -22 -19
-29 -15 -25 -11 -203 -184 l-149 -145 -46 -22 c-59 -29 -65 -31 -135 -34 l-61
-2 -44 22 c-53 25 -90 55 -90 73 0 7 -4 13 -10 13 -5 0 -10 8 -10 19 0 10 -7
24 -15 31 l-15 12 0 -14 c0 -20 27 -73 45 -88 8 -7 15 -19 15 -28 0 -8 3 -12
6 -9 4 4 19 -2 34 -13 16 -11 35 -20 43 -20 9 0 19 -5 23 -11 l6 -11 72 6 c86
6 136 16 136 26 0 4 13 13 28 19 16 7 51 34 78 61 27 27 57 50 66 50 l17 0 -5
14 -5 13 88 86 c48 48 104 97 123 109 19 13 36 33 38 44 l3 21 -40 28 -41 27
7 11 c3 5 2 7 -3 4 -12 -7 -66 49 -82 86 -6 15 -15 27 -20 27 -5 0 -21 11 -37
24 l-28 24 7 10 7 11 -28 18 c-15 10 -34 26 -41 36 -20 26 -64 73 -65 69 -1
-2 -14 2 -29 9 l-28 12 10 12 10 12 -27 1 c-16 1 -48 4 -72 8 l-44 6 7 -11z" />
    <path d="M2280 3150 c0 -7 3 -10 7 -7 3 4 3 10 0 14 -4 3 -7 0 -7 -7z" />
    <path d="M2110 3130 c0 -7 3 -10 7 -7 3 4 3 10 0 14 -4 3 -7 0 -7 -7z" />
    <path d="M2810 3110 c0 -7 3 -10 7 -7 3 4 3 10 0 14 -4 3 -7 0 -7 -7z" />
    <path d="M3065 3101 c-3 -5 -1 -12 5 -16 l10 -6 0 15 c0 18 -6 21 -15 7z" />
    <path d="M1986 2989 c-26 -71 -33 -115 -17 -104 5 3 12 20 16 38 6 31 18 63
36 99 11 23 11 38 0 38 -5 0 -20 -32 -35 -71z" />
    <path d="M3130 3050 c0 -7 3 -10 7 -7 3 4 3 10 0 14 -4 3 -7 0 -7 -7z" />
    <path d="M2060 2995 c0 -8 5 -15 10 -15 6 0 10 7 10 15 0 8 -4 15 -10 15 -5 0
-10 -7 -10 -15z" />
    <path d="M3125 2991 c-3 -5 -1 -12 5 -16 l10 -6 0 15 c0 18 -6 21 -15 7z" />
    <path d="M3080 2966 c0 -9 5 -16 10 -16 6 0 10 4 10 9 0 6 -4 13 -10 16 l-10
6 0 -15z" />
    <path d="M3210 2866 c0 -13 7 -29 15 -36 l15 -12 0 13 c0 26 -12 59 -21 59 -5
0 -9 -11 -9 -24z" />
    <path d="M3020 2860 c0 -5 5 -10 10 -10 6 0 10 5 10 10 0 6 -4 10 -10 10 -5 0
-10 -4 -10 -10z" />
    <path d="M3140 2850 c0 -5 5 -10 10 -10 6 0 10 5 10 10 0 6 -4 10 -10 10 -5 0
-10 -4 -10 -10z" />
    <path d="M3060 2836 c0 -2 7 -7 16 -10 l15 -6 -6 10 c-6 10 -25 14 -25 6z" />
    <path d="M2274 2795 l-19 -14 17 -1 c9 0 20 5 23 11 11 17 0 20 -21 4z" />
    <path d="M3113 2783 c4 -3 10 -3 14 0 3 4 0 7 -7 7 -7 0 -10 -3 -7 -7z" />
    <path d="M1950 2750 c0 -11 5 -20 10 -20 6 0 10 9 10 20 0 11 -4 20 -10 20 -5
0 -10 -9 -10 -20z" />
    <path d="M3120 2745 c0 -8 5 -15 10 -15 6 0 10 7 10 15 0 8 -4 15 -10 15 -5 0
-10 -7 -10 -15z" />
    <path d="M3222 2698 c-14 -14 -16 -58 -3 -58 10 0 26 58 19 66 -2 2 -10 -2
-16 -8z" />
    <path d="M2020 2670 c0 -7 3 -10 7 -7 3 4 3 10 0 14 -4 3 -7 0 -7 -7z" />
    <path d="M1964 2628 c3 -13 6 -26 6 -30 0 -5 5 -8 10 -8 6 0 10 11 10 24 l0
24 -16 6 -16 6 6 -22z" />
    <path d="M3183 2623 c4 -3 10 -3 14 0 3 4 0 7 -7 7 -7 0 -10 -3 -7 -7z" />
    <path d="M3199 2594 c-6 -16 -16 -40 -21 -54 -6 -14 -17 -36 -24 -50 -8 -14
-22 -42 -32 -63 l-17 -37 -12 4 -12 5 5 -13 5 -13 -41 -37 c-23 -21 -39 -40
-36 -44 8 -8 57 29 70 53 6 11 18 27 27 35 22 20 81 133 98 188 16 48 8 69
-10 26z" />
    <path d="M2240 2580 c0 -7 3 -10 7 -7 3 4 3 10 0 14 -4 3 -7 0 -7 -7z" />
    <path d="M1995 2559 c-10 -15 3 -25 16 -12 l11 11 -10 6 c-6 3 -14 1 -17 -5z" />
    <path d="M2000 2519 c1 -26 65 -128 118 -189 29 -33 57 -60 62 -60 5 0 21 -11
36 -25 15 -14 33 -25 40 -25 8 0 14 -4 14 -9 0 -9 148 -71 169 -71 6 0 8 7 5
15 l-6 15 -29 0 c-16 0 -29 5 -29 10 0 6 -9 10 -21 10 -19 0 -58 16 -69 29 -3
3 -18 13 -34 21 -32 16 -135 115 -178 170 -15 19 -28 43 -28 53 0 9 -4 17 -10
17 -5 0 -10 6 -10 14 0 7 -7 19 -15 26 l-15 12 0 -13z" />
    <path d="M3060 2439 c0 -5 5 -7 10 -4 6 3 10 8 10 11 0 2 -4 4 -10 4 -5 0 -10
-5 -10 -11z" />
    <path d="M2193 2403 c9 -9 19 -14 23 -11 10 10 -6 28 -24 28 l-16 0 17 -17z" />
    <path d="M2940 2370 c0 -5 5 -10 10 -10 6 0 10 5 10 10 0 6 -4 10 -10 10 -5 0
-10 -4 -10 -10z" />
    <path d="M3013 2353 c4 -3 10 -3 14 0 3 4 0 7 -7 7 -7 0 -10 -3 -7 -7z" />
    <path d="M2460 2309 c0 -5 5 -7 10 -4 6 3 10 8 10 11 0 2 -4 4 -10 4 -5 0 -10
-5 -10 -11z" />
    <path d="M2665 2310 c-3 -5 -1 -10 4 -10 6 0 11 5 11 10 0 6 -2 10 -4 10 -3 0
-8 -4 -11 -10z" />
    <path d="M2964 2298 l-7 -11 11 7 c12 7 16 16 8 16 -3 0 -8 -5 -12 -12z" />
    <path d="M2310 2289 c0 -5 5 -7 10 -4 6 3 10 8 10 11 0 2 -4 4 -10 4 -5 0 -10
-5 -10 -11z" />
    <path d="M2946 2249 c-14 -11 -26 -17 -26 -12 0 4 -6 1 -13 -7 -14 -18 -111
-60 -137 -60 -10 0 -20 -7 -24 -15 -3 -8 -2 -15 2 -15 4 0 38 11 76 25 72 26
166 80 166 96 0 15 -16 10 -44 -12z" />
    <path d="M2315 2250 c-3 -5 -1 -10 4 -10 6 0 11 5 11 10 0 6 -2 10 -4 10 -3 0
-8 -4 -11 -10z" />
    <path d="M2563 2253 c4 -3 10 -3 14 0 3 4 0 7 -7 7 -7 0 -10 -3 -7 -7z" />
    <path d="M2490 2142 l0 -11 54 -6 c63 -8 156 2 156 17 l0 11 -52 -8 c-63 -9
-71 -9 -120 0 l-38 8 0 -11z" />
  </g>
  <g transform="translate(0.000000,500.000000) scale(0.100000,-0.100000)" fill="#feb4e3" stroke="none">
    <path d="M2490 3200 c0 -5 4 -10 9 -10 6 0 13 5 16 10 l6 10 -15 0 c-9 0 -16
-4 -16 -10z" />
    <path d="M2584 3193 c4 -5 11 -8 14 -8 4 -1 18 -7 30 -14 13 -7 26 -10 29 -8
6 7 -51 37 -68 37 -7 0 -9 -3 -5 -7z" />
    <path d="M2325 3110 c-3 -5 -1 -10 4 -10 6 0 11 5 11 10 0 6 -2 10 -4 10 -3 0
-8 -4 -11 -10z" />
    <path d="M2810 3020 c0 -5 5 -10 11 -10 5 0 7 5 4 10 -3 6 -8 10 -11 10 -2 0
-4 -4 -4 -10z" />
    <path d="M2280 3004 l0 -15 10 6 c6 4 8 11 5 16 -9 14 -15 11 -15 -7z" />
    <path d="M2860 2960 c0 -5 5 -10 11 -10 5 0 7 5 4 10 -3 6 -8 10 -11 10 -2 0
-4 -4 -4 -10z" />
    <path d="M2280 2944 l0 -15 10 6 c6 4 8 11 5 16 -9 14 -15 11 -15 -7z" />
    <path d="M2950 2864 c0 -7 27 -34 34 -34 4 0 1 9 -6 20 -12 19 -28 27 -28 14z" />
    <path d="M2325 2840 c3 -5 8 -10 11 -10 2 0 4 5 4 10 0 6 -5 10 -11 10 -5 0
-7 -4 -4 -10z" />
    <path d="M2380 2770 c0 -5 4 -10 9 -10 6 0 13 5 16 10 l6 10 -15 0 c-9 0 -16
-4 -16 -10z" />
    <path d="M3015 2720 c-3 -5 -2 -10 4 -10 5 0 13 5 16 10 3 6 2 10 -4 10 -5 0
-13 -4 -16 -10z" />
    <path d="M2297 2683 c-4 -3 -7 -11 -7 -17 l0 -10 12 12 c6 6 9 14 7 17 -3 3
-9 2 -12 -2z" />
    <path d="M2970 2679 c0 -5 5 -7 10 -4 6 3 10 8 10 11 0 2 -4 4 -10 4 -5 0 -10
-5 -10 -11z" />
    <path d="M2270 2619 c0 -5 5 -7 10 -4 6 3 10 8 10 11 0 2 -4 4 -10 4 -5 0 -10
-5 -10 -11z" />
    <path d="M2785 2500 c-27 -27 -47 -52 -44 -55 3 -2 30 20 59 50 30 30 50 55
44 55 -5 0 -32 -22 -59 -50z" />
    <path d="M2270 2528 c0 -8 7 -23 15 -34 l14 -19 1 12 c0 6 -5 15 -10 18 -6 4
-8 10 -5 15 3 5 1 11 -5 15 -5 3 -10 0 -10 -7z" />
    <path d="M2305 2450 c3 -5 8 -10 11 -10 2 0 4 5 4 10 0 6 -5 10 -11 10 -5 0
-7 -4 -4 -10z" />
    <path d="M2335 2410 c3 -5 8 -10 11 -10 2 0 4 5 4 10 0 6 -5 10 -11 10 -5 0
-7 -4 -4 -10z" />
    <path d="M2644 2385 c-10 -8 -14 -15 -8 -15 5 0 19 7 30 15 10 8 14 15 8 15
-5 0 -19 -7 -30 -15z" />
    <path d="M2384 2375 c11 -8 25 -15 30 -15 6 0 2 7 -8 15 -11 8 -25 15 -30 15
-6 0 -2 -7 8 -15z" />
    <path d="M2585 2360 c-3 -5 -1 -10 4 -10 6 0 11 5 11 10 0 6 -2 10 -4 10 -3 0
-8 -4 -11 -10z" />
    <path d="M2460 2350 c0 -5 5 -10 11 -10 5 0 7 5 4 10 -3 6 -8 10 -11 10 -2 0
-4 -4 -4 -10z" />
    <path d="M2525 2350 l-6 -10 21 0 21 0 -6 10 c-3 6 -10 10 -15 10 -5 0 -12 -4
-15 -10z" />
    <path d="M2249 2056 c-15 -9 -32 -30 -38 -47 l-11 -32 0 -121 0 -121 14 -44
c7 -25 18 -47 24 -49 l12 -4 -15 29 -15 28 0 155 0 156 16 22 15 22 119 -3
c66 -2 122 -6 125 -9 3 -3 14 -48 25 -99 10 -52 23 -105 29 -119 l10 -25 1 15
c1 8 3 22 5 30 2 8 7 28 10 43 9 46 36 120 51 145 l14 22 42 0 41 0 19 -17 18
-16 18 16 c21 20 45 21 73 6 l20 -10 29 10 c16 5 38 7 49 4 l21 -5 0 -48 c0
-57 -46 -307 -62 -335 l-11 -20 16 13 c27 23 80 264 74 336 l-4 49 -16 12 -15
11 -157 2 c-87 1 -162 5 -169 9 -6 3 -8 3 -4 -1 3 -4 -1 -17 -10 -28 -47 -57
-62 -61 -81 -24 -7 13 -25 29 -39 35 -14 7 -68 14 -121 17 l-96 5 -26 -15z" />
    <path d="M2336 1728 c-8 -13 -18 -35 -21 -50 l-7 -27 -26 -10 -27 -9 18 -1
c11 -1 32 13 47 29 15 17 34 30 42 30 7 0 27 -15 45 -34 l31 -34 46 -7 45 -7
84 12 c46 6 127 12 182 13 54 1 90 3 79 5 -10 2 -29 15 -42 30 l-23 27 -20
-27 -21 -28 -27 0 c-15 0 -32 5 -38 11 l-12 12 -28 -11 c-39 -15 -172 -24
-208 -14 l-30 8 -13 40 c-12 36 -35 64 -54 64 -4 0 -14 -10 -22 -22z" />
  </g>
  <g transform="translate(0.000000,500.000000) scale(0.100000,-0.100000)" fill="#f3fefe" stroke="none">
    <path d="M2543 3523 c4 -3 10 -3 14 0 3 4 0 7 -7 7 -7 0 -10 -3 -7 -7z" />
    <path d="M2243 3513 c4 -3 10 -3 14 0 3 4 0 7 -7 7 -7 0 -10 -3 -7 -7z" />
    <path d="M3023 3493 c4 -3 10 -3 14 0 3 4 0 7 -7 7 -7 0 -10 -3 -7 -7z" />
    <path d="M2406 3470 c-37 -10 -73 -23 -79 -29 -6 -6 -21 -11 -33 -11 -12 0
-24 -3 -26 -7 -5 -12 -66 -53 -77 -53 -5 0 -16 -8 -23 -17 -7 -10 -22 -24 -33
-31 -11 -7 -32 -20 -46 -30 l-26 -17 5 -14 5 -14 -17 6 -17 7 7 -11 c3 -6 -3
-20 -14 -32 -11 -12 -25 -32 -31 -45 -7 -12 -16 -20 -22 -17 -5 4 -9 3 -8 -2
3 -20 -2 -34 -11 -28 l-10 6 0 -31 0 -32 -13 5 -13 5 4 -28 4 -28 -11 -6 c-6
-4 -11 -16 -11 -27 0 -11 -4 -18 -9 -15 -5 3 -11 -2 -13 -12 -6 -24 3 -92 12
-92 4 0 11 21 15 48 13 88 91 251 139 291 9 7 16 17 16 22 0 13 87 91 139 123
115 73 197 103 313 116 44 5 83 12 86 15 13 13 -140 1 -202 -15z" />
    <path d="M2650 3481 c0 -4 24 -11 53 -15 73 -9 210 -53 242 -79 6 -4 39 -29
75 -54 36 -25 74 -57 85 -71 11 -14 35 -43 54 -66 47 -56 107 -188 121 -266 7
-36 15 -72 18 -80 l6 -15 4 42 c2 23 -2 51 -7 62 -6 11 -11 33 -11 50 0 17 -4
31 -10 31 -5 0 -10 9 -10 19 0 11 -4 22 -9 25 -5 3 -12 17 -15 31 -7 26 -36
72 -76 119 -55 65 -118 126 -129 126 -6 0 -17 11 -23 25 l-11 25 -21 0 c-12 0
-41 14 -65 30 -24 17 -51 30 -60 30 -9 0 -45 9 -79 20 -66 21 -132 26 -132 11z" />
    <path d="M2478 3163 c7 -3 16 -2 19 1 4 3 -2 6 -13 5 l-19 -1 13 -5z" />
    <path d="M2367 3110 c-9 -11 -13 -20 -8 -20 11 0 35 29 29 35 -2 2 -12 -4 -21
-15z" />
    <path d="M2310 3010 c0 -7 3 -10 7 -7 3 4 3 10 0 14 -4 3 -7 0 -7 -7z" />
    <path d="M2826 2928 c3 -5 10 -6 15 -3 13 9 11 12 -6 12 -8 0 -12 -4 -9 -9z" />
    <path d="M2385 2880 c3 -5 8 -10 11 -10 2 0 4 5 4 10 0 6 -5 10 -11 10 -5 0
-7 -4 -4 -10z" />
    <path d="M1882 2832 l-13 -23 12 -15 12 -14 -17 -18 c-9 -10 -13 -22 -9 -25 5
-6 13 -38 38 -162 4 -16 11 -41 17 -55 18 -44 53 -115 59 -120 3 -3 12 -19 19
-37 8 -17 17 -30 21 -28 3 3 12 -7 19 -20 7 -14 21 -27 30 -30 9 -3 22 -15 29
-28 6 -12 28 -33 49 -47 20 -14 41 -30 45 -37 10 -15 37 -17 37 -3 0 6 -13 18
-29 28 -71 43 -169 152 -219 242 -16 30 -40 84 -52 120 l-22 65 -7 115 -6 115
-13 -23z" />
    <path d="M2920 2830 c0 -5 5 -10 10 -10 6 0 10 5 10 10 0 6 -4 10 -10 10 -5 0
-10 -4 -10 -10z" />
    <path d="M2980 2780 c0 -7 3 -10 7 -7 3 4 3 10 0 14 -4 3 -7 0 -7 -7z" />
    <path d="M2905 2750 c3 -5 13 -10 21 -10 8 0 12 5 9 10 -3 6 -13 10 -21 10 -8
0 -12 -4 -9 -10z" />
    <path d="M3297 2685 c-4 -16 -14 -59 -23 -94 -28 -115 -106 -245 -196 -326
-69 -63 -90 -79 -131 -100 -21 -11 -41 -23 -43 -27 -10 -15 34 -8 46 7 7 8 26
15 42 15 l30 0 -4 12 c-6 16 38 52 52 43 6 -4 9 -2 8 3 -2 4 13 24 32 44 19
19 42 45 50 58 8 13 27 38 43 56 15 17 34 49 41 71 l15 38 0 -18 c1 -10 5 -16
10 -12 5 3 7 20 4 39 l-5 33 11 7 c6 4 11 17 11 30 0 12 5 27 11 33 l10 10 -3
54 -3 54 -8 -30z" />
    <path d="M2310 2630 c0 -7 3 -10 7 -7 3 4 3 10 0 14 -4 3 -7 0 -7 -7z" />
    <path d="M2805 2570 c-3 -5 -1 -10 4 -10 6 0 11 5 11 10 0 6 -2 10 -4 10 -3 0
-8 -4 -11 -10z" />
    <path d="M2745 2510 c-3 -5 -2 -10 4 -10 5 0 13 5 16 10 3 6 2 10 -4 10 -5 0
-13 -4 -16 -10z" />
    <path d="M2310 2500 c0 -7 3 -10 7 -7 3 4 3 10 0 14 -4 3 -7 0 -7 -7z" />
    <path d="M2560 2429 c0 -5 5 -7 10 -4 6 3 10 8 10 11 0 2 -4 4 -10 4 -5 0 -10
-5 -10 -11z" />
    <path d="M2373 2413 c4 -3 10 -3 14 0 3 4 0 7 -7 7 -7 0 -10 -3 -7 -7z" />
    <path d="M3230 2334 l0 -15 10 6 c6 3 10 10 10 16 0 5 -4 9 -10 9 -5 0 -10 -7
-10 -16z" />
    <path d="M2080 2241 c0 -6 5 -13 10 -16 l10 -6 0 15 c0 9 -4 16 -10 16 -5 0
-10 -4 -10 -9z" />
    <path d="M3123 2243 c4 -3 10 -3 14 0 3 4 0 7 -7 7 -7 0 -10 -3 -7 -7z" />
    <path d="M2100 2150 c0 -5 5 -10 10 -10 6 0 10 5 10 10 0 6 -4 10 -10 10 -5 0
-10 -4 -10 -10z" />
    <path d="M2254 2145 c22 -17 36 -19 36 -6 0 10 -24 21 -43 21 -7 0 -3 -7 7
-15z" />
    <path d="M2315 2120 c3 -5 10 -10 16 -10 5 0 9 5 9 10 0 6 -7 10 -16 10 l-15
0 6 -10z" />
    <path d="M2848 2123 c-10 -2 -18 -9 -18 -14 l0 -10 23 6 c12 4 26 11 32 16 l9
9 -14 -1 c-8 -1 -23 -3 -32 -6z" />
  </g>
  <g transform="translate(0.000000,500.000000) scale(0.100000,-0.100000)" fill="#d3339d" stroke="none">
    <path d="M2570 3410 c0 -5 16 -10 35 -10 19 0 35 5 35 10 0 6 -16 10 -35 10
-19 0 -35 -4 -35 -10z" />
    <path d="M2415 3398 c-75 -24 -135 -51 -135 -59 0 -5 -7 -9 -15 -9 -8 0 -24
-9 -35 -20 -11 -11 -24 -20 -29 -20 -6 0 -16 -8 -23 -17 -7 -10 -22 -23 -32
-29 -11 -6 -24 -19 -30 -30 -6 -10 -19 -25 -28 -32 -10 -7 -18 -20 -18 -28 0
-8 -4 -14 -10 -14 -5 0 -10 -5 -10 -10 0 -6 -8 -20 -18 -30 -16 -17 -72 -161
-72 -183 0 -18 18 5 25 30 3 16 24 65 46 110 l40 82 63 65 c66 68 177 146 207
146 10 0 21 5 24 10 3 6 17 10 30 10 13 0 27 5 30 10 3 6 26 10 50 10 24 0 47
5 50 10 l6 10 -43 -1 c-24 0 -56 -5 -73 -11z" />
    <path d="M2666 3401 c5 -5 27 -11 49 -14 55 -7 103 -20 150 -42 58 -27 163
-110 215 -171 41 -46 87 -128 119 -208 7 -16 14 -26 17 -23 10 10 -24 98 -65
167 l-39 65 -69 65 c-38 36 -82 72 -99 80 -16 8 -32 19 -35 23 -11 15 -179 67
-216 67 l-37 0 10 -9z" />
    <path d="M2551 3197 c36 -7 86 -25 111 -40 25 -15 77 -57 114 -94 70 -70 62
-55 -14 28 -24 26 -69 60 -100 77 l-57 30 -60 6 -60 5 66 -12z" />
    <path d="M2415 3186 c-17 -7 -37 -21 -45 -32 l-15 -18 30 20 c17 12 44 26 60
32 17 6 23 11 15 11 -8 0 -29 -6 -45 -13z" />
    <path d="M2316 3097 c-15 -19 -26 -42 -26 -53 l1 -19 15 35 c8 19 22 42 31 52
9 10 13 18 10 18 -3 0 -17 -15 -31 -33z" />
    <path d="M2283 2975 c0 -27 2 -38 4 -22 2 15 2 37 0 50 -2 12 -4 0 -4 -28z" />
    <path d="M2864 2961 c20 -22 26 -25 26 -13 0 4 -10 13 -22 21 l-23 14 19 -22z" />
    <path d="M2955 2862 c39 -38 81 -76 95 -86 l25 -17 -25 -17 c-44 -31 -160
-135 -155 -140 3 -3 29 17 58 44 29 27 70 64 92 81 l40 33 -35 27 c-19 15 -61
53 -93 85 -31 32 -60 58 -65 58 -4 0 25 -31 63 -68z" />
    <path d="M3210 2911 c0 -25 19 -75 26 -69 8 8 -8 88 -17 88 -5 0 -9 -9 -9 -19z" />
    <path d="M2290 2909 c0 -20 45 -88 73 -111 l22 -18 -37 -33 c-35 -33 -74 -94
-65 -103 2 -3 10 9 17 26 7 17 33 48 57 70 l45 39 -38 33 c-20 18 -45 51 -55
73 -10 22 -19 33 -19 24z" />
    <path d="M1950 2774 c0 -63 5 -136 11 -162 15 -62 85 -212 98 -212 6 0 11 -6
11 -14 0 -19 82 -108 116 -126 16 -8 36 -23 46 -32 10 -10 25 -18 33 -18 8 0
15 -4 15 -9 0 -18 141 -66 224 -76 l58 -7 -6 10 c-3 6 -32 14 -64 17 -57 7
-212 60 -212 73 0 4 -15 14 -32 21 -18 8 -64 47 -103 86 l-70 71 -34 69 c-38
77 -44 93 -61 148 l-12 37 1 120 0 120 -9 0 -10 0 0 -116z" />
    <path d="M3220 2664 c-6 -14 -10 -33 -10 -41 0 -41 -74 -199 -113 -240 -23
-25 -16 -43 8 -23 23 19 82 128 103 191 30 88 41 189 12 113z" />
    <path d="M2272 2575 l-1 -60 15 -25 15 -25 -7 20 c-4 11 -11 49 -14 85 l-7 65
-1 -60z" />
    <path d="M2800 2505 l-74 -80 79 77 c43 43 77 79 75 80 -3 2 -39 -33 -80 -77z" />
    <path d="M2308 2445 c6 -11 21 -30 34 -41 27 -25 81 -54 100 -54 7 0 -10 11
-38 24 -28 13 -63 39 -78 57 -15 19 -23 25 -18 14z" />
    <path d="M2701 2417 c-6 -8 -29 -22 -51 -32 -22 -10 -38 -20 -36 -23 7 -6 106
50 106 60 0 12 -6 10 -19 -5z" />
    <path d="M2515 2350 l-60 -7 55 -1 c30 0 64 3 75 8 l20 9 -15 -1 c-8 -1 -42
-4 -75 -8z" />
    <path d="M3000 2285 c-59 -63 -197 -126 -304 -139 -31 -4 -59 -12 -62 -18 l-6
-10 58 7 c33 4 77 13 99 20 55 18 119 46 125 54 3 3 17 12 33 18 15 7 27 17
27 23 0 5 6 10 13 10 14 0 57 41 57 53 0 14 -17 6 -40 -18z" />
  </g>
  <g transform="translate(0.000000,500.000000) scale(0.100000,-0.100000)" fill="#8cc2e3" stroke="none">
    <path d="M2525 3420 l-6 -10 81 0 81 0 -6 10 -6 10 -69 0 -69 0 -6 -10z" />
    <path d="M2455 3415 c-5 -1 -36 -10 -67 -20 -50 -15 -157 -71 -183 -96 l-9 -9
17 0 c9 0 17 5 17 10 0 6 6 10 14 10 8 0 16 4 18 8 6 13 126 63 183 75 30 6
55 15 55 19 0 8 -25 10 -45 3z" />
    <path d="M2700 3411 c0 -5 15 -12 33 -16 76 -16 213 -77 230 -102 4 -7 12 -13
17 -13 5 0 31 -24 59 -52 l50 -53 8 9 8 8 -65 60 c-76 70 -159 118 -254 147
-77 24 -86 25 -86 12z" />
    <path d="M2125 3233 c-41 -41 -115 -150 -115 -167 1 -16 40 34 40 50 0 8 5 14
10 14 6 0 10 5 10 11 0 6 11 20 24 30 14 11 27 28 31 38 3 10 17 23 30 29 14
6 25 16 25 22 0 19 -18 10 -55 -27z" />
    <path d="M3110 3158 c0 -10 5 -18 10 -18 6 0 10 -6 10 -14 0 -8 4 -16 8 -18
11 -4 72 -145 72 -166 0 -21 17 -49 24 -41 16 16 -59 196 -103 249 l-20 25 -1
-17z" />
    <path d="M1991 3032 c-15 -28 -38 -101 -45 -144 l-7 -38 9 0 c6 0 13 17 16 38
4 20 16 63 28 95 20 58 19 87 -1 49z" />
    <path d="M3230 2773 l0 -108 -15 -55 c-8 -30 -32 -91 -54 -135 l-39 -80 -64
-62 c-35 -34 -76 -72 -93 -85 -16 -12 -31 -26 -33 -30 -2 -5 -10 -8 -17 -8 -7
0 -15 -3 -17 -7 -8 -20 -185 -73 -240 -73 -21 0 -38 -4 -38 -10 l0 -10 48 0
47 0 69 25 c38 14 83 32 100 41 17 9 44 24 61 32 16 9 66 52 111 96 l81 81 46
95 c25 52 50 119 56 148 6 29 11 98 11 152 l0 100 -10 0 -10 0 0 -107z" />
    <path d="M1940 2683 c0 -4 7 -36 16 -72 20 -84 78 -202 126 -255 20 -23 37
-36 38 -30 0 6 -10 22 -22 36 -48 53 -105 171 -126 258 -9 39 -20 70 -24 70
-4 0 -8 -3 -8 -7z" />
    <path d="M2185 2254 c45 -40 194 -118 246 -128 19 -4 58 -10 87 -13 l52 -5 0
11 0 11 -37 0 c-53 0 -132 23 -206 59 -74 36 -114 60 -139 84 -10 9 -24 17
-30 17 -7 -1 5 -17 27 -36z" />
    <path d="M2915 2150 l-6 -10 15 0 c9 0 16 5 16 10 0 6 -4 10 -9 10 -6 0 -13
-4 -16 -10z" />
    <path d="M2293 2133 c8 -13 124 -48 209 -63 l68 -12 97 11 c101 12 233 48 233
64 l0 9 -17 -7 c-10 -4 -48 -16 -86 -26 l-67 -19 -128 -2 -127 -1 -70 21 c-38
11 -81 23 -94 28 l-24 7 6 -10z" />
  </g>
  <g transform="translate(0.000000,500.000000) scale(0.100000,-0.100000)" fill="#f463ba" stroke="none">
    <path d="M2553 3193 c4 -3 10 -3 14 0 3 4 0 7 -7 7 -7 0 -10 -3 -7 -7z" />
    <path d="M2394 3168 l-7 -11 11 7 c7 4 12 9 12 12 0 8 -9 4 -16 -8z" />
    <path d="M2349 3133 l-14 -18 18 14 c9 7 17 15 17 17 0 8 -8 3 -21 -13z" />
    <path d="M2710 3126 c0 -2 8 -10 18 -17 l17 -14 -14 18 c-13 16 -21 21 -21 13z" />
    <path d="M2760 3076 c0 -2 8 -10 18 -17 l17 -14 -14 18 c-13 16 -21 21 -21 13z" />
    <path d="M2895 2920 c3 -5 8 -10 11 -10 3 0 2 5 -1 10 -3 6 -8 10 -11 10 -3 0
-2 -4 1 -10z" />
    <path d="M3005 2810 c3 -5 8 -10 11 -10 3 0 2 5 -1 10 -3 6 -8 10 -11 10 -3 0
-2 -4 1 -10z" />
    <path d="M2334 2728 l-19 -23 23 19 c21 18 27 26 19 26 -2 0 -12 -10 -23 -22z" />
    <path d="M3004 2708 l-7 -11 11 7 c7 4 12 9 12 12 0 8 -9 4 -16 -8z" />
    <path d="M2899 2613 l-34 -38 38 34 c20 19 37 36 37 38 0 8 -8 0 -41 -34z" />
    <path d="M2400 1918 c0 -44 -4 -88 -10 -98 l-10 -18 20 5 20 5 2 -18 c0 -11 4
4 7 31 4 28 3 55 -2 62 l-9 12 7 49 6 49 -15 0 -16 0 0 -79z" />
    <path d="M2730 1990 c0 -7 3 -10 7 -7 3 4 3 10 0 14 -4 3 -7 0 -7 -7z" />
    <path d="M2300 1910 l0 -80 9 0 c5 0 16 3 25 6 l16 6 0 62 0 62 -12 12 c-7 7
-18 12 -25 12 l-13 0 0 -80z m27 -2 l-5 -13 -1 19 c-1 11 2 17 5 13 3 -3 4
-12 1 -19z" />
    <path d="M2677 1984 c-4 -4 -5 -33 -1 -65 l6 -56 -11 -7 c-14 -9 -15 -66 -1
-66 6 0 10 11 10 24 0 13 5 26 12 28 l11 4 -9 73 c-5 40 -12 69 -17 65z" />
    <path d="M2861 1943 c-1 -23 4 -45 10 -48 6 -4 12 -5 14 -4 1 2 6 24 10 49 l8
45 -16 -13 -15 -13 -5 13 c-3 7 -6 -6 -6 -29z" />
    <path d="M2743 1920 c0 -25 2 -35 4 -22 2 12 2 32 0 45 -2 12 -4 2 -4 -23z" />
    <path d="M2802 1940 c0 -8 4 -26 8 -40 l8 -25 0 20 c0 11 -3 29 -8 40 l-9 20
1 -15z" />
    <path d="M2870 1855 c0 -14 5 -25 10 -25 6 0 10 11 10 25 0 14 -4 25 -10 25
-5 0 -10 -11 -10 -25z" />
    <path d="M2752 1840 c0 -19 2 -27 5 -17 2 9 2 25 0 35 -3 9 -5 1 -5 -18z" />
    <path d="M2821 1844 l1 -19 5 13 c3 7 2 16 -1 19 -3 4 -6 -2 -5 -13z" />
    <path d="M2690 1804 l0 -15 10 6 c6 4 8 11 5 16 -9 14 -15 11 -15 -7z" />
    <path d="M2830 1800 c0 -7 3 -10 7 -7 3 4 3 10 0 14 -4 3 -7 0 -7 -7z" />
    <path d="M2601 1784 l1 -19 5 13 c3 7 2 16 -1 19 -3 4 -6 -2 -5 -13z" />
    <path d="M2300 1768 l0 -23 9 14 c5 7 15 17 22 22 l14 9 -22 0 -23 0 0 -22z" />
    <path d="M2762 1765 l0 -30 5 18 c2 9 2 23 0 30 -3 6 -5 -1 -5 -18z" />
    <path d="M2492 1738 l-2 -38 23 1 22 1 -17 5 -17 4 -4 32 -4 32 -1 -37z" />
    <path d="M2657 1743 c-4 -3 -7 -20 -6 -37 l0 -31 9 23 c10 24 35 30 43 10 3
-7 6 -1 6 15 l1 27 -23 0 c-13 0 -27 -3 -30 -7z" />
    <path d="M2590 1710 c0 -7 3 -10 7 -7 3 4 3 10 0 14 -4 3 -7 0 -7 -7z" />
    <path d="M2570 1680 c0 -5 4 -10 9 -10 6 0 13 5 16 10 l6 10 -15 0 c-9 0 -16
-4 -16 -10z" />
  </g>
  <g transform="translate(0.000000,500.000000) scale(0.100000,-0.100000)" fill="#e1feff" stroke="none">
    <path d="M2610 3480 c8 -5 25 -10 38 -10 l23 0 -6 10 c-3 6 -21 10 -38 10
l-32 0 15 -10z" />
    <path d="M2445 3473 c-74 -17 -164 -57 -240 -105 -50 -32 -145 -117 -145 -130
0 -5 29 17 65 50 l66 60 92 46 92 47 62 12 c64 13 94 28 52 26 -13 -1 -33 -3
-44 -6z" />
    <path d="M2710 3470 c20 -13 33 -13 25 0 -3 6 -14 10 -23 10 l-17 0 15 -10z" />
    <path d="M2756 3462 c5 -5 29 -14 54 -21 24 -7 67 -24 94 -37 55 -26 73 -25
31 2 -25 16 -158 64 -179 64 l-10 0 10 -8z" />
    <path d="M2970 3371 c0 -5 7 -12 16 -15 24 -9 28 -7 14 9 -14 17 -30 20 -30 6z" />
    <path d="M3062 3301 c79 -70 160 -189 197 -291 7 -19 15 -30 18 -23 6 16 -69
172 -103 213 -52 62 -132 140 -145 140 -6 0 8 -18 33 -39z" />
    <path d="M2003 3163 c-41 -59 -101 -199 -91 -209 3 -3 12 12 18 33 16 49 61
137 95 187 14 21 24 40 21 43 -2 2 -22 -22 -43 -54z" />
    <path d="M3280 2940 c5 -18 12 -35 16 -39 10 -9 -6 53 -17 63 l-9 10 10 -34z" />
    <path d="M1907 2933 c-4 -3 -7 -11 -7 -17 l0 -10 12 12 c6 6 9 14 7 17 -3 3
-9 2 -12 -2z" />
    <path d="M1897 2883 c-4 -3 -7 -18 -6 -32 l1 -26 9 29 c9 31 7 41 -4 29z" />
    <path d="M3300 2777 l5 -82 3 74 c2 41 -1 78 -5 82 -4 4 -6 -29 -3 -74z" />
    <path d="M1891 2683 c-1 -17 4 -35 9 -38 11 -7 11 9 0 45 l-8 25 -1 -32z" />
    <path d="M3287 2640 c-3 -8 -11 -37 -17 -65 -14 -55 -61 -152 -99 -203 -13
-18 -22 -35 -19 -38 8 -7 51 54 81 112 32 64 70 180 64 196 l-5 13 -5 -15z" />
    <path d="M1900 2623 c0 -24 35 -117 67 -180 l36 -73 69 -75 c69 -74 124 -117
200 -156 66 -34 52 -16 -20 26 l-67 39 -85 85 -86 86 -41 85 c-23 47 -45 102
-49 123 -3 20 -10 40 -15 43 -5 3 -9 2 -9 -3z" />
    <path d="M3080 2268 c-30 -28 -78 -66 -107 -86 -29 -19 -52 -37 -50 -39 5 -5
62 27 95 52 51 41 127 114 122 118 -3 3 -30 -18 -60 -45z" />
    <path d="M2870 2124 l-25 -15 25 7 c14 3 29 10 35 15 l9 9 -9 0 c-6 -1 -21 -7
-35 -16z" />
    <path d="M2345 2110 c3 -5 11 -10 16 -10 6 0 7 5 4 10 -3 6 -11 10 -16 10 -6
0 -7 -4 -4 -10z" />
    <path d="M2800 2100 l-15 -10 17 0 c9 0 20 5 23 10 8 13 -5 13 -25 0z" />
    <path d="M2393 2093 c4 -3 10 -3 14 0 3 4 0 7 -7 7 -7 0 -10 -3 -7 -7z" />
    <path d="M2528 2068 c6 -6 18 -8 28 -6 l19 4 -28 6 -29 6 10 -10z" />
  </g>
  <g transform="translate(0.000000,500.000000) scale(0.100000,-0.100000)" fill="#b843a1" stroke="none">
    <path d="M2490 3410 l0 -10 44 0 c25 0 48 5 51 10 l6 10 -50 0 -51 0 0 -10z" />
    <path d="M2625 3410 c3 -5 22 -10 41 -10 19 0 34 5 34 10 l0 10 -41 0 -40 0 6
-10z" />
    <path d="M2423 3403 c-13 -2 -23 -9 -23 -14 l0 -10 23 6 c12 4 26 11 32 16 l9
9 -9 -1 c-6 -1 -20 -4 -32 -6z" />
    <path d="M2725 3402 c6 -5 35 -17 65 -26 30 -10 61 -20 68 -22 6 -3 12 -2 12
3 0 8 -62 31 -130 49 l-25 6 10 -10z" />
    <path d="M2360 3381 c-46 -15 -134 -67 -183 -110 -46 -41 -22 -35 33 8 28 22
80 54 116 71 35 17 64 33 64 36 0 2 -1 4 -2 3 -2 0 -14 -4 -28 -8z" />
    <path d="M2900 3336 c0 -5 78 -56 86 -56 13 0 -20 32 -47 46 -28 14 -39 17
-39 10z" />
    <path d="M3057 3208 c64 -68 124 -166 144 -238 7 -25 16 -49 21 -55 l8 -9 -6
34 c-9 48 -56 151 -90 197 -37 51 -116 133 -128 133 -5 0 18 -28 51 -62z" />
    <path d="M2082 3175 c-34 -37 -66 -94 -59 -101 2 -2 17 15 32 38 15 24 37 53
48 65 11 13 18 25 15 28 -3 3 -19 -10 -36 -30z" />
    <path d="M1983 2998 c-12 -35 -24 -78 -28 -97 l-7 -34 11 7 c6 4 11 15 11 25
0 16 23 90 45 144 l7 17 -9 0 c-5 0 -19 -28 -30 -62z" />
    <path d="M2845 2980 c3 -5 8 -10 11 -10 3 0 2 5 -1 10 -3 6 -8 10 -11 10 -3 0
-2 -4 1 -10z" />
    <path d="M3220 2886 c0 -8 5 -18 10 -21 l10 -6 0 20 c0 12 -4 21 -10 21 -5 0
-10 -6 -10 -14z" />
    <path d="M1940 2775 l0 -75 10 0 10 0 0 75 0 75 -10 0 -10 0 0 -75z" />
    <path d="M3233 2770 c0 -47 2 -66 4 -42 2 23 2 61 0 85 -2 23 -4 4 -4 -43z" />
    <path d="M2340 2826 c0 -2 8 -10 18 -17 l17 -14 -14 18 c-13 16 -21 21 -21 13z" />
    <path d="M2387 2776 l-6 -15 14 6 c8 3 12 9 9 14 -7 12 -11 11 -17 -5z" />
    <path d="M3034 2728 l-7 -11 11 7 c7 4 12 9 12 12 0 8 -9 4 -16 -8z" />
    <path d="M3225 2667 c-4 -10 -5 -21 -1 -24 10 -10 18 4 13 24 l-4 18 -8 -18z" />
    <path d="M1954 2647 c3 -10 6 -27 6 -38 0 -10 5 -19 10 -19 l10 0 -6 28 c-4
15 -11 32 -17 37 l-10 10 7 -18z" />
    <path d="M3217 2613 c-2 -5 -10 -26 -17 -48 -7 -22 -28 -69 -47 -104 -18 -35
-31 -66 -28 -69 3 -3 6 -3 8 -1 12 15 86 179 91 202 6 26 2 36 -7 20z" />
    <path d="M1975 2558 c16 -53 93 -190 115 -203 18 -11 11 7 -16 42 -14 19 -41
67 -60 108 -34 73 -52 98 -39 53z" />
    <path d="M3029 2306 l-77 -72 -77 -38 c-42 -21 -75 -40 -72 -42 9 -9 93 30
152 71 60 43 155 133 155 147 0 4 -1 8 -2 8 -2 -1 -37 -34 -79 -74z" />
    <path d="M2175 2270 c10 -17 109 -79 166 -103 30 -13 68 -27 84 -31 l30 -6
-19 15 c-11 8 -25 15 -32 15 -23 0 -108 41 -166 81 -59 40 -74 47 -63 29z" />
    <path d="M2754 2144 l-19 -16 18 6 c10 3 23 6 28 6 5 0 9 5 9 10 0 14 -13 12
-36 -6z" />
    <path d="M2480 2130 c0 -5 12 -10 26 -10 l25 0 -6 10 c-3 6 -15 10 -26 10 -10
0 -19 -4 -19 -10z" />
    <path d="M2665 2130 l-6 -10 30 0 c17 0 31 5 31 10 0 6 -11 10 -24 10 -14 0
-28 -4 -31 -10z" />
    <path d="M2555 2120 c3 -5 22 -10 41 -10 19 0 34 5 34 10 l0 10 -41 0 -40 0 6
-10z" />
  </g>
  <g transform="translate(0.000000,500.000000) scale(0.100000,-0.100000)" fill="#a9aee3" stroke="none">
    <path d="M2485 3410 l-7 -11 29 7 c38 9 42 14 10 14 -14 0 -29 -5 -32 -10z" />
    <path d="M2670 3410 c14 -4 36 -8 50 -8 l25 -1 -20 9 c-11 5 -33 8 -50 8 l-30
0 25 -8z" />
    <path d="M2448 3403 c7 -3 16 -2 19 1 4 3 -2 6 -13 5 l-19 -1 13 -5z" />
    <path d="M2395 3390 c-3 -5 -2 -10 4 -10 5 0 13 5 16 10 3 6 2 10 -4 10 -5 0
-13 -4 -16 -10z" />
    <path d="M2761 3396 c3 -4 37 -18 124 -51 l20 -8 -10 11 c-5 6 -35 20 -65 31
-52 20 -79 26 -69 17z" />
    <path d="M2327 3370 c-43 -27 -44 -32 -1 -14 46 19 48 20 37 27 -4 2 -20 -3
-36 -13z" />
    <path d="M2218 3305 c-27 -20 -48 -38 -48 -41 0 -6 7 -2 68 40 23 16 42 30 42
32 0 10 -19 0 -62 -31z" />
    <path d="M2938 3315 c13 -9 26 -14 29 -11 8 8 3 12 -27 21 l-25 7 23 -17z" />
    <path d="M2985 3280 c3 -5 16 -15 28 -21 l22 -12 -19 22 c-19 21 -43 30 -31
11z" />
    <path d="M2126 3234 c-9 -23 -2 -28 13 -10 l12 14 -9 6 c-6 3 -13 -1 -16 -10z" />
    <path d="M3128 3127 c28 -42 58 -100 67 -128 9 -28 20 -48 23 -45 7 7 -58 159
-70 164 -4 2 -8 8 -8 13 0 6 -14 24 -31 42 l-31 32 50 -78z" />
    <path d="M2062 3153 c-28 -40 -85 -154 -79 -159 2 -3 18 23 35 58 17 35 40 78
52 96 27 39 19 43 -8 5z" />
    <path d="M1967 2953 c-4 -3 -7 -11 -7 -17 l0 -10 12 12 c6 6 9 14 7 17 -3 3
-9 2 -12 -2z" />
    <path d="M3221 2915 c-1 -21 15 -52 23 -45 2 3 -2 19 -9 35 l-13 30 -1 -20z" />
    <path d="M1950 2890 c0 -7 3 -10 7 -7 3 4 3 10 0 14 -4 3 -7 0 -7 -7z" />
    <path d="M1947 2863 c-10 -9 -9 -181 1 -186 4 -3 7 39 7 94 0 54 0 99 -1 99 0
0 -4 -3 -7 -7z" />
    <path d="M3226 2654 c-4 -9 -4 -19 -1 -22 2 -3 7 3 11 12 4 9 4 19 1 22 -2 3
-7 -3 -11 -12z" />
    <path d="M1950 2650 c0 -7 3 -10 7 -7 3 4 3 10 0 14 -4 3 -7 0 -7 -7z" />
    <path d="M3220 2610 c0 -7 3 -10 7 -7 3 4 3 10 0 14 -4 3 -7 0 -7 -7z" />
    <path d="M1960 2606 c0 -16 45 -123 57 -136 l14 -15 -26 58 c-14 32 -25 64
-25 72 0 7 -4 17 -10 20 -5 3 -10 4 -10 1z" />
    <path d="M3203 2563 c-17 -49 -45 -109 -71 -146 -43 -64 -47 -75 -18 -45 14
15 26 29 26 32 0 2 16 32 34 65 19 34 32 61 29 61 -3 0 2 11 11 25 l16 25 -10
0 c-6 0 -13 -8 -17 -17z" />
    <path d="M2033 2440 c14 -39 33 -70 46 -75 l14 -5 -18 27 c-30 46 -48 69 -42
53z" />
    <path d="M2110 2334 c0 -13 48 -59 55 -52 3 2 -9 17 -25 33 -17 16 -30 24 -30
19z" />
    <path d="M3045 2310 c-3 -5 -1 -10 4 -10 6 0 11 5 11 10 0 6 -2 10 -4 10 -3 0
-8 -4 -11 -10z" />
    <path d="M2992 2265 c-7 -8 -9 -15 -4 -15 5 0 15 7 22 15 16 19 -1 19 -18 0z" />
    <path d="M2180 2266 c0 -8 102 -76 115 -76 9 0 -16 18 -87 65 -16 9 -28 15
-28 11z" />
    <path d="M2917 2211 c-27 -15 -78 -38 -115 -49 -37 -12 -80 -26 -97 -32 l-30
-10 40 6 c74 11 186 56 235 94 14 11 23 20 20 20 -3 0 -27 -13 -53 -29z" />
    <path d="M2316 2180 c14 -14 109 -47 159 -55 l40 -6 -15 10 c-8 6 -25 11 -37
11 -13 0 -53 11 -90 25 -38 15 -63 21 -57 15z" />
    <path d="M2557 2118 c6 -10 70 -10 77 0 2 4 -15 7 -39 7 -24 0 -41 -3 -38 -7z" />
    <path d="M2400 2096 c0 -2 7 -7 16 -10 l15 -6 -6 10 c-6 10 -25 14 -25 6z" />
    <path d="M2775 2090 l-6 -10 15 6 c18 7 21 14 7 14 -6 0 -13 -4 -16 -10z" />
    <path d="M2443 2083 c4 -3 10 -3 14 0 3 4 0 7 -7 7 -7 0 -10 -3 -7 -7z" />
    <path d="M2743 2083 c4 -3 10 -3 14 0 3 4 0 7 -7 7 -7 0 -10 -3 -7 -7z" />
    <path d="M2493 2073 c9 -2 23 -2 30 0 6 3 -1 5 -18 5 l-30 0 18 -5z" />
    <path d="M2626 2072 c-2 -4 12 -6 32 -4 62 6 69 10 20 11 -26 0 -49 -3 -52 -7z" />
  </g>
  <g transform="translate(0.000000,500.000000) scale(0.100000,-0.100000)" fill="#ab83c7" stroke="none">
    <path d="M2557 3413 c18 -2 50 -2 70 0 21 2 7 4 -32 4 -38 0 -55 -2 -38 -4z" />
    <path d="M2468 3403 c7 -3 16 -2 19 1 4 3 -2 6 -13 5 l-19 -1 13 -5z" />
    <path d="M2713 3403 c4 -3 10 -3 14 0 3 4 0 7 -7 7 -7 0 -10 -3 -7 -7z" />
    <path d="M2395 3390 l-20 -9 15 0 c8 0 22 4 30 9 18 12 2 12 -25 0z" />
    <path d="M2753 3393 c4 -3 10 -3 14 0 3 4 0 7 -7 7 -7 0 -10 -3 -7 -7z" />
    <path d="M2355 3380 c3 -5 8 -10 11 -10 3 0 2 5 -1 10 -3 6 -8 10 -11 10 -3 0
-2 -4 1 -10z" />
    <path d="M2783 3383 c4 -3 10 -3 14 0 3 4 0 7 -7 7 -7 0 -10 -3 -7 -7z" />
    <path d="M2813 3373 c4 -3 10 -3 14 0 3 4 0 7 -7 7 -7 0 -10 -3 -7 -7z" />
    <path d="M2333 3363 c4 -3 10 -3 14 0 3 4 0 7 -7 7 -7 0 -10 -3 -7 -7z" />
    <path d="M2841 3366 c10 -9 89 -46 89 -41 0 5 -75 45 -86 45 -4 0 -5 -2 -3 -4z" />
    <path d="M2264 3328 l-7 -11 11 7 c12 7 16 16 8 16 -3 0 -8 -5 -12 -12z" />
    <path d="M2234 3308 l-7 -11 11 7 c7 4 12 9 12 12 0 8 -9 4 -16 -8z" />
    <path d="M2940 3315 c0 -1 14 -12 32 -25 l31 -23 -19 25 c-10 14 -24 25 -31
25 -7 0 -13 -1 -13 -2z" />
    <path d="M2204 3288 l-7 -11 11 7 c12 7 16 16 8 16 -3 0 -8 -5 -12 -12z" />
    <path d="M2154 3248 l-19 -23 23 19 c21 18 27 26 19 26 -2 0 -12 -10 -23 -22z" />
    <path d="M3050 3225 c19 -19 36 -35 39 -35 3 0 -10 16 -29 35 -19 19 -36 35
-39 35 -3 0 10 -16 29 -35z" />
    <path d="M2099 3193 l-24 -28 28 24 c25 23 32 31 24 31 -2 0 -14 -12 -28 -27z" />
    <path d="M3105 3160 c3 -5 8 -10 11 -10 3 0 2 5 -1 10 -3 6 -8 10 -11 10 -3 0
-2 -4 1 -10z" />
    <path d="M2064 3148 l-7 -11 11 7 c12 7 16 16 8 16 -3 0 -8 -5 -12 -12z" />
    <path d="M2044 3118 l-7 -11 11 7 c7 4 12 9 12 12 0 8 -9 4 -16 -8z" />
    <path d="M3145 3100 c3 -5 8 -10 11 -10 3 0 2 5 -1 10 -3 6 -8 10 -11 10 -3 0
-2 -4 1 -10z" />
    <path d="M2010 3059 c-7 -11 -10 -23 -7 -25 2 -2 9 7 15 21 14 30 7 33 -8 4z" />
    <path d="M1986 3005 c-9 -26 -7 -32 5 -12 6 10 9 21 6 23 -2 3 -7 -2 -11 -11z" />
    <path d="M3190 3010 c0 -7 3 -10 7 -7 3 4 3 10 0 14 -4 3 -7 0 -7 -7z" />
    <path d="M3200 2980 c0 -7 3 -10 7 -7 3 4 3 10 0 14 -4 3 -7 0 -7 -7z" />
    <path d="M1966 2944 c-4 -14 -5 -28 -3 -31 3 -2 8 8 11 23 4 14 5 28 3 31 -3
2 -8 -8 -11 -23z" />
    <path d="M3210 2950 c0 -7 3 -10 7 -7 3 4 3 10 0 14 -4 3 -7 0 -7 -7z" />
    <path d="M3220 2910 c0 -7 3 -10 7 -7 3 4 3 10 0 14 -4 3 -7 0 -7 -7z" />
    <path d="M1952 2870 c0 -14 2 -19 5 -12 2 6 2 18 0 25 -3 6 -5 1 -5 -13z" />
    <path d="M3230 2865 c0 -8 2 -15 4 -15 2 0 6 7 10 15 3 8 1 15 -4 15 -6 0 -10
-7 -10 -15z" />
    <path d="M2395 2780 c3 -5 8 -10 11 -10 3 0 2 5 -1 10 -3 6 -8 10 -11 10 -3 0
-2 -4 1 -10z" />
    <path d="M1952 2670 c0 -14 2 -19 5 -12 2 6 2 18 0 25 -3 6 -5 1 -5 -13z" />
    <path d="M3231 2674 l1 -19 5 13 c3 7 2 16 -1 19 -3 4 -6 -2 -5 -13z" />
    <path d="M3221 2624 l1 -19 5 13 c3 7 2 16 -1 19 -3 4 -6 -2 -5 -13z" />
    <path d="M1961 2620 c0 -8 4 -24 9 -35 l9 -20 0 15 c0 8 -4 24 -9 35 l-9 20 0
-15z" />
    <path d="M3206 2574 c-8 -22 -4 -25 11 -9 l13 14 -9 5 c-5 3 -12 -1 -15 -10z" />
    <path d="M1980 2555 c0 -5 5 -17 10 -25 5 -8 10 -10 10 -5 0 6 -5 17 -10 25
-5 8 -10 11 -10 5z" />
    <path d="M3190 2530 c0 -5 5 -10 11 -10 5 0 7 5 4 10 -3 6 -8 10 -11 10 -2 0
-4 -4 -4 -10z" />
    <path d="M2000 2501 c0 -6 4 -13 10 -16 l10 -6 -6 15 c-7 18 -14 21 -14 7z" />
    <path d="M2016 2461 c-3 -5 1 -11 9 -14 l14 -6 -6 15 c-6 16 -10 17 -17 5z" />
    <path d="M3140 2430 c-6 -11 -8 -20 -6 -20 3 0 10 9 16 20 6 11 8 20 6 20 -3
0 -10 -9 -16 -20z" />
    <path d="M2045 2420 c3 -5 8 -10 11 -10 3 0 2 5 -1 10 -3 6 -8 10 -11 10 -3 0
-2 -4 1 -10z" />
    <path d="M2065 2390 c3 -5 8 -10 11 -10 3 0 2 5 -1 10 -3 6 -8 10 -11 10 -3 0
-2 -4 1 -10z" />
    <path d="M3109 2383 l-14 -18 20 15 c11 8 22 16 24 17 2 2 0 3 -6 3 -6 0 -17
-8 -24 -17z" />
    <path d="M2080 2366 c0 -2 8 -10 18 -17 l17 -14 -14 18 c-13 16 -21 21 -21 13z" />
    <path d="M3048 2315 c-26 -25 -44 -45 -39 -45 4 0 27 20 51 45 24 25 42 45 40
45 -3 0 -26 -21 -52 -45z" />
    <path d="M2160 2286 c0 -2 8 -10 18 -17 l17 -14 -14 18 c-13 16 -21 21 -21 13z" />
    <path d="M2207 2249 c12 -15 73 -53 73 -46 0 2 -19 17 -42 32 -24 16 -38 22
-31 14z" />
    <path d="M2969 2243 l-14 -18 18 14 c16 13 21 21 13 21 -2 0 -10 -8 -17 -17z" />
    <path d="M2914 2208 l-7 -11 11 7 c7 4 12 9 12 12 0 8 -9 4 -16 -8z" />
    <path d="M2297 2189 c7 -7 15 -10 18 -7 3 3 -2 9 -12 12 l-18 7 12 -12z" />
    <path d="M2340 2170 c8 -5 20 -10 25 -10 6 0 3 5 -5 10 -8 5 -19 10 -25 10 -5
0 -3 -5 5 -10z" />
    <path d="M2843 2173 c4 -3 10 -3 14 0 3 4 0 7 -7 7 -7 0 -10 -3 -7 -7z" />
    <path d="M2383 2153 c4 -3 10 -3 14 0 3 4 0 7 -7 7 -7 0 -10 -3 -7 -7z" />
    <path d="M2770 2150 c-18 -12 -2 -12 25 0 l20 9 -15 0 c-8 0 -22 -4 -30 -9z" />
    <path d="M2413 2143 c4 -3 10 -3 14 0 3 4 0 7 -7 7 -7 0 -10 -3 -7 -7z" />
    <path d="M2458 2133 c7 -3 16 -2 19 1 4 3 -2 6 -13 5 l-19 -1 13 -5z" />
    <path d="M2718 2133 c7 -3 16 -2 19 1 4 3 -2 6 -13 5 l-19 -1 13 -5z" />
    <path d="M2508 2123 c6 -2 18 -2 25 0 6 3 1 5 -13 5 -14 0 -19 -2 -12 -5z" />
    <path d="M2658 2123 c6 -2 18 -2 25 0 6 3 1 5 -13 5 -14 0 -19 -2 -12 -5z" />
  </g>
  <g transform="translate(0.000000,500.000000) scale(0.100000,-0.100000)" fill="#f154b2" stroke="none">
    <path d="M2780 3056 c0 -2 8 -10 18 -17 l17 -14 -14 18 c-13 16 -21 21 -21 13z" />
    <path d="M2900 2916 c0 -2 8 -10 18 -17 l17 -14 -14 18 c-13 16 -21 21 -21 13z" />
    <path d="M2994 2698 l-7 -11 11 7 c7 4 12 9 12 12 0 8 -9 4 -16 -8z" />
    <path d="M2300 1972 c0 -4 9 -8 19 -8 11 0 17 4 15 8 -3 4 -12 8 -20 8 -8 0
-14 -4 -14 -8z" />
    <path d="M2676 1943 c-3 -21 -7 -63 -8 -93 l-3 -55 17 -3 18 -3 -6 93 c-4 51
-8 94 -9 96 -2 2 -6 -14 -9 -35z" />
    <path d="M2410 1933 c0 -16 -2 -46 -5 -68 -2 -22 -2 -31 1 -21 l6 19 9 -14 9
-14 0 63 0 62 -10 0 c-5 0 -10 -12 -10 -27z" />
    <path d="M2872 1880 l0 -55 9 32 9 31 -9 24 -10 23 1 -55z" />
    <path d="M2301 1863 l-1 -23 20 0 20 0 -1 18 -1 17 -5 -12 c-7 -18 -21 -16
-26 5 l-5 17 -1 -22z" />
    <path d="M2660 1740 c0 -5 5 -10 10 -10 6 0 10 5 10 10 0 6 -4 10 -10 10 -5 0
-10 -4 -10 -10z" />
    <path d="M2693 1733 c4 -3 10 -3 14 0 3 4 0 7 -7 7 -7 0 -10 -3 -7 -7z" />
  </g>
  <g transform="translate(0.000000,500.000000) scale(0.100000,-0.100000)" fill="#8ddce0" stroke="none">
    <path d="M2485 3470 l-20 -9 17 0 c9 -1 20 4 23 9 7 11 7 11 -20 0z" />
    <path d="M2548 3473 c7 -3 16 -2 19 1 4 3 -2 6 -13 5 l-19 -1 13 -5z" />
    <path d="M2633 3473 c9 -2 25 -2 35 0 9 3 1 5 -18 5 -19 0 -27 -2 -17 -5z" />
    <path d="M2723 3463 c4 -3 10 -3 14 0 3 4 0 7 -7 7 -7 0 -10 -3 -7 -7z" />
    <path d="M2757 3459 c7 -7 15 -10 18 -7 3 3 -2 9 -12 12 l-18 7 12 -12z" />
    <path d="M2375 3445 c-39 -18 -31 -18 25 -1 25 8 36 15 25 15 -11 0 -33 -6
-50 -14z" />
    <path d="M2793 3454 c7 -7 118 -54 127 -54 2 0 -4 6 -15 13 -21 15 -123 51
-112 41z" />
    <path d="M2254 3390 c-39 -21 -77 -46 -84 -56 l-14 -16 39 27 c22 15 61 38 88
51 26 13 47 27 47 29 0 3 -1 5 -2 5 -2 0 -35 -18 -74 -40z" />
    <path d="M2930 3397 c0 -6 108 -77 117 -77 4 0 -9 12 -28 26 -36 27 -89 57
-89 51z" />
    <path d="M2954 3308 l-7 -11 11 7 c7 4 12 9 12 12 0 8 -9 4 -16 -8z" />
    <path d="M2071 3245 c-37 -40 -47 -55 -38 -55 2 0 23 23 46 50 23 28 40 50 38
50 -3 0 -23 -20 -46 -45z" />
    <path d="M2135 3240 c3 -5 8 -10 11 -10 3 0 2 5 -1 10 -3 6 -8 10 -11 10 -3 0
-2 -4 1 -10z" />
    <path d="M3130 3233 c0 -6 8 -17 18 -24 l17 -14 -15 20 c-8 11 -16 22 -17 24
-2 2 -3 0 -3 -6z" />
    <path d="M3170 3188 c0 -12 42 -79 47 -74 3 2 -7 22 -21 43 -14 20 -26 35 -26
31z" />
    <path d="M1998 3148 c-23 -35 -60 -110 -56 -113 2 -2 20 28 40 66 37 68 44 90
16 47z" />
    <path d="M3124 3138 l-7 -11 11 7 c12 7 16 16 8 16 -3 0 -8 -5 -12 -12z" />
    <path d="M3144 3108 l-7 -11 11 7 c12 7 16 16 8 16 -3 0 -8 -5 -12 -12z" />
    <path d="M3241 3060 c-1 -3 8 -27 19 -55 10 -27 19 -43 19 -35 0 14 -36 101
-38 90z" />
    <path d="M1920 2980 c0 -7 3 -10 7 -7 3 4 3 10 0 14 -4 3 -7 0 -7 -7z" />
    <path d="M1907 2931 l-6 -24 11 11 c5 5 8 16 6 23 l-4 13 -7 -23z" />
    <path d="M3280 2930 c0 -7 3 -10 7 -7 3 4 3 10 0 14 -4 3 -7 0 -7 -7z" />
    <path d="M1901 2884 l1 -19 5 13 c3 7 2 16 -1 19 -3 4 -6 -2 -5 -13z" />
    <path d="M3291 2864 l1 -19 5 13 c3 7 2 16 -1 19 -3 4 -6 -2 -5 -13z" />
    <path d="M3291 2674 l1 -19 5 13 c3 7 2 16 -1 19 -3 4 -6 -2 -5 -13z" />
    <path d="M1901 2654 l1 -19 5 13 c3 7 2 16 -1 19 -3 4 -6 -2 -5 -13z" />
    <path d="M3283 2635 c-3 -9 -3 -18 -1 -21 3 -3 8 4 11 16 6 23 -1 27 -10 5z" />
    <path d="M1907 2609 l7 -23 4 13 c2 7 -1 18 -6 23 l-11 11 6 -24z" />
    <path d="M3266 2564 c-4 -14 -5 -28 -3 -31 3 -2 8 8 11 23 4 14 5 28 3 31 -3
2 -8 -8 -11 -23z" />
    <path d="M1920 2570 c0 -7 3 -10 7 -7 3 4 3 10 0 14 -4 3 -7 0 -7 -7z" />
    <path d="M3195 2530 c3 -5 8 -10 11 -10 3 0 2 5 -1 10 -3 6 -8 10 -11 10 -3 0
-2 -4 1 -10z" />
    <path d="M1936 2517 c3 -10 9 -15 12 -12 3 3 0 11 -7 18 l-12 12 7 -18z" />
    <path d="M3221 2454 c-12 -20 -20 -39 -17 -41 2 -3 14 13 26 36 11 23 19 41
16 41 -2 0 -14 -16 -25 -36z" />
    <path d="M1960 2461 c0 -5 5 -13 10 -16 6 -3 10 -2 10 4 0 5 -4 13 -10 16 -5
3 -10 2 -10 -4z" />
    <path d="M2014 2458 l-7 -11 11 7 c12 7 16 16 8 16 -3 0 -8 -5 -12 -12z" />
    <path d="M1986 2417 c3 -10 9 -15 12 -12 3 3 0 11 -7 18 l-12 12 7 -18z" />
    <path d="M2064 2378 l-7 -11 11 7 c12 7 16 16 8 16 -3 0 -8 -5 -12 -12z" />
    <path d="M3165 2364 c-9 -14 -15 -27 -13 -30 2 -2 12 10 22 26 21 37 15 40 -9
4z" />
    <path d="M2026 2357 c3 -10 9 -15 12 -12 3 3 0 11 -7 18 l-12 12 7 -18z" />
    <path d="M2070 2305 c21 -33 124 -119 179 -148 28 -16 51 -26 51 -24 0 2 -28
21 -62 43 -35 21 -90 63 -122 93 -32 31 -53 47 -46 36z" />
    <path d="M3094 2278 l-29 -31 27 19 c15 10 29 25 32 32 3 6 4 12 3 12 -2 0
-16 -14 -33 -32z" />
    <path d="M3020 2217 c-14 -12 -37 -30 -50 -40 l-25 -18 30 16 c39 21 93 65 80
65 -5 -1 -21 -11 -35 -23z" />
    <path d="M2894 2134 l-19 -15 25 12 c31 14 36 19 24 19 -6 0 -19 -7 -30 -16z" />
    <path d="M2310 2127 c0 -3 15 -10 32 -16 18 -6 28 -7 23 -2 -12 10 -55 25 -55
18z" />
    <path d="M2813 2103 c4 -3 10 -3 14 0 3 4 0 7 -7 7 -7 0 -10 -3 -7 -7z" />
  </g>
  <g transform="translate(0.000000,500.000000) scale(0.100000,-0.100000)" fill="#ccf4fc" stroke="none">
    <path d="M2508 3473 c7 -3 16 -2 19 1 4 3 -2 6 -13 5 l-19 -1 13 -5z" />
    <path d="M2688 3473 c7 -3 16 -2 19 1 4 3 -2 6 -13 5 l-19 -1 13 -5z" />
    <path d="M2453 3463 c4 -3 10 -3 14 0 3 4 0 7 -7 7 -7 0 -10 -3 -7 -7z" />
    <path d="M2743 3463 c4 -3 10 -3 14 0 3 4 0 7 -7 7 -7 0 -10 -3 -7 -7z" />
    <path d="M2778 3453 c7 -3 16 -2 19 1 4 3 -2 6 -13 5 l-19 -1 13 -5z" />
    <path d="M2373 3443 c4 -3 10 -3 14 0 3 4 0 7 -7 7 -7 0 -10 -3 -7 -7z" />
    <path d="M2813 3443 c4 -3 10 -3 14 0 3 4 0 7 -7 7 -7 0 -10 -3 -7 -7z" />
    <path d="M2330 3430 c-8 -5 -10 -10 -5 -10 6 0 17 5 25 10 8 5 11 10 5 10 -5
0 -17 -5 -25 -10z" />
    <path d="M2843 3433 c4 -3 10 -3 14 0 3 4 0 7 -7 7 -7 0 -10 -3 -7 -7z" />
    <path d="M2870 3426 c0 -2 7 -7 16 -10 l15 -6 -6 10 c-6 10 -25 14 -25 6z" />
    <path d="M2234 3378 l-7 -11 11 7 c12 7 16 16 8 16 -3 0 -8 -5 -12 -12z" />
    <path d="M2950 3386 c0 -3 9 -10 20 -16 11 -6 20 -8 20 -6 0 3 -9 10 -20 16
-11 6 -20 8 -20 6z" />
    <path d="M2184 3348 l-7 -11 11 7 c7 4 12 9 12 12 0 8 -9 4 -16 -8z" />
    <path d="M3000 3356 c0 -2 8 -10 18 -17 l17 -14 -14 18 c-13 16 -21 21 -21 13z" />
    <path d="M3085 3280 c27 -27 51 -50 54 -50 3 0 -17 23 -44 50 -27 28 -51 50
-54 50 -3 0 17 -22 44 -50z" />
    <path d="M2134 3308 l-7 -11 11 7 c7 4 12 9 12 12 0 8 -9 4 -16 -8z" />
    <path d="M2049 3223 l-14 -18 18 14 c16 13 21 21 13 21 -2 0 -10 -8 -17 -17z" />
    <path d="M3165 3190 c3 -5 8 -10 11 -10 3 0 2 5 -1 10 -3 6 -8 10 -11 10 -3 0
-2 -4 1 -10z" />
    <path d="M1984 3128 l-7 -11 11 7 c7 4 12 9 12 12 0 8 -9 4 -16 -8z" />
    <path d="M3217 3105 c9 -19 18 -33 21 -31 4 5 -26 66 -33 66 -3 0 3 -16 12
-35z" />
    <path d="M1930 3010 c0 -7 3 -10 7 -7 3 4 3 10 0 14 -4 3 -7 0 -7 -7z" />
    <path d="M3260 3010 c0 -7 3 -10 7 -7 3 4 3 10 0 14 -4 3 -7 0 -7 -7z" />
    <path d="M3270 2980 c0 -7 3 -10 7 -7 3 4 3 10 0 14 -4 3 -7 0 -7 -7z" />
    <path d="M1910 2950 c0 -7 3 -10 7 -7 3 4 3 10 0 14 -4 3 -7 0 -7 -7z" />
    <path d="M3280 2940 c0 -7 3 -10 7 -7 3 4 3 10 0 14 -4 3 -7 0 -7 -7z" />
    <path d="M1900 2910 c0 -7 3 -10 7 -7 3 4 3 10 0 14 -4 3 -7 0 -7 -7z" />
    <path d="M3291 2894 l1 -19 5 13 c3 7 2 16 -1 19 -3 4 -6 -2 -5 -13z" />
    <path d="M1893 2770 c0 -41 2 -58 4 -37 2 20 2 54 0 75 -2 20 -4 3 -4 -38z" />
    <path d="M3290 2650 c0 -7 3 -10 7 -7 3 4 3 10 0 14 -4 3 -7 0 -7 -7z" />
    <path d="M1901 2634 l1 -19 5 13 c3 7 2 16 -1 19 -3 4 -6 -2 -5 -13z" />
    <path d="M3270 2570 c0 -7 3 -10 7 -7 3 4 3 10 0 14 -4 3 -7 0 -7 -7z" />
    <path d="M1930 2530 c0 -7 3 -10 7 -7 3 4 3 10 0 14 -4 3 -7 0 -7 -7z" />
    <path d="M3246 2505 c-9 -26 -7 -32 5 -12 6 10 9 21 6 23 -2 3 -7 -2 -11 -11z" />
    <path d="M1950 2484 c0 -6 7 -19 16 -30 l15 -19 -12 25 c-14 31 -19 36 -19 24z" />
    <path d="M3204 2418 l-7 -11 11 7 c7 4 12 9 12 12 0 8 -9 4 -16 -8z" />
    <path d="M2000 2390 c6 -11 13 -20 16 -20 2 0 0 9 -6 20 -6 11 -13 20 -16 20
-2 0 0 -9 6 -20z" />
    <path d="M3164 2358 l-7 -11 11 7 c7 4 12 9 12 12 0 8 -9 4 -16 -8z" />
    <path d="M2030 2346 c0 -2 8 -10 18 -17 l17 -14 -14 18 c-13 16 -21 21 -21 13z" />
    <path d="M3139 2323 l-14 -18 18 14 c16 13 21 21 13 21 -2 0 -10 -8 -17 -17z" />
    <path d="M3049 2233 l-14 -18 18 14 c9 7 17 15 17 17 0 8 -8 3 -21 -13z" />
    <path d="M2150 2226 c0 -2 8 -10 18 -17 l17 -14 -14 18 c-13 16 -21 21 -21 13z" />
    <path d="M3004 2198 l-7 -11 11 7 c7 4 12 9 12 12 0 8 -9 4 -16 -8z" />
    <path d="M2195 2190 c3 -5 8 -10 11 -10 3 0 2 5 -1 10 -3 6 -8 10 -11 10 -3 0
-2 -4 1 -10z" />
    <path d="M2974 2178 l-7 -11 11 7 c7 4 12 9 12 12 0 8 -9 4 -16 -8z" />
    <path d="M2225 2170 c3 -5 8 -10 11 -10 3 0 2 5 -1 10 -3 6 -8 10 -11 10 -3 0
-2 -4 1 -10z" />
    <path d="M2924 2148 l-7 -11 11 7 c7 4 12 9 12 12 0 8 -9 4 -16 -8z" />
    <path d="M2873 2123 c4 -3 10 -3 14 0 3 4 0 7 -7 7 -7 0 -10 -3 -7 -7z" />
    <path d="M2333 2113 c4 -3 10 -3 14 0 3 4 0 7 -7 7 -7 0 -10 -3 -7 -7z" />
    <path d="M2363 2103 c4 -3 10 -3 14 0 3 4 0 7 -7 7 -7 0 -10 -3 -7 -7z" />
    <path d="M2823 2103 c4 -3 10 -3 14 0 3 4 0 7 -7 7 -7 0 -10 -3 -7 -7z" />
    <path d="M2428 2083 c7 -3 16 -2 19 1 4 3 -2 6 -13 5 l-19 -1 13 -5z" />
    <path d="M2758 2083 c7 -3 16 -2 19 1 4 3 -2 6 -13 5 l-19 -1 13 -5z" />
    <path d="M2578 2063 c12 -2 30 -2 40 0 9 3 -1 5 -23 4 l-40 0 23 -4z" />
  </g>
  <g transform="translate(0.000000,500.000000) scale(0.100000,-0.100000)" fill="#ae5daf" stroke="none">
    <path d="M2483 3403 c4 -3 10 -3 14 0 3 4 0 7 -7 7 -7 0 -10 -3 -7 -7z" />
    <path d="M2698 3403 c7 -3 16 -2 19 1 4 3 -2 6 -13 5 l-19 -1 13 -5z" />
    <path d="M2194 3278 l-7 -11 11 7 c7 4 12 9 12 12 0 8 -9 4 -16 -8z" />
    <path d="M2995 3270 c3 -5 8 -10 11 -10 3 0 2 5 -1 10 -3 6 -8 10 -11 10 -3 0
-2 -4 1 -10z" />
    <path d="M2129 3223 l-14 -18 18 14 c16 13 21 21 13 21 -2 0 -10 -8 -17 -17z" />
    <path d="M3125 3130 c3 -5 8 -10 11 -10 3 0 2 5 -1 10 -3 6 -8 10 -11 10 -3 0
-2 -4 1 -10z" />
    <path d="M1970 2950 c0 -7 3 -10 7 -7 3 4 3 10 0 14 -4 3 -7 0 -7 -7z" />
    <path d="M3220 2900 c0 -7 3 -10 7 -7 3 4 3 10 0 14 -4 3 -7 0 -7 -7z" />
    <path d="M1950 2850 c0 -7 3 -10 7 -7 3 4 3 10 0 14 -4 3 -7 0 -7 -7z" />
    <path d="M3230 2850 c0 -7 3 -10 7 -7 3 4 3 10 0 14 -4 3 -7 0 -7 -7z" />
    <path d="M1951 2694 l1 -19 5 13 c3 7 2 16 -1 19 -3 4 -6 -2 -5 -13z" />
    <path d="M3230 2690 c0 -7 3 -10 7 -7 3 4 3 10 0 14 -4 3 -7 0 -7 -7z" />
    <path d="M3220 2640 c0 -7 3 -10 7 -7 3 4 3 10 0 14 -4 3 -7 0 -7 -7z" />
    <path d="M1970 2590 c0 -7 3 -10 7 -7 3 4 3 10 0 14 -4 3 -7 0 -7 -7z" />
    <path d="M2130 2315 c19 -19 36 -35 39 -35 3 0 -10 16 -29 35 -19 19 -36 35
-39 35 -3 0 10 -16 29 -35z" />
    <path d="M2235 2230 c3 -5 8 -10 11 -10 3 0 2 5 -1 10 -3 6 -8 10 -11 10 -3 0
-2 -4 1 -10z" />
    <path d="M2783 2153 c4 -3 10 -3 14 0 3 4 0 7 -7 7 -7 0 -10 -3 -7 -7z" />
    <path d="M2473 2133 c4 -3 10 -3 14 0 3 4 0 7 -7 7 -7 0 -10 -3 -7 -7z" />
    <path d="M2538 2123 c7 -3 16 -2 19 1 4 3 -2 6 -13 5 l-19 -1 13 -5z" />
    <path d="M2628 2123 c6 -2 18 -2 25 0 6 3 1 5 -13 5 -14 0 -19 -2 -12 -5z" />
  </g>
  <g transform="translate(0.000000,500.000000) scale(0.100000,-0.100000)" fill="#aceef0" stroke="none">
    <path d="M2528 3473 c7 -3 16 -2 19 1 4 3 -2 6 -13 5 l-19 -1 13 -5z" />
    <path d="M2673 3473 c4 -3 10 -3 14 0 3 4 0 7 -7 7 -7 0 -10 -3 -7 -7z" />
    <path d="M2463 3463 c4 -3 10 -3 14 0 3 4 0 7 -7 7 -7 0 -10 -3 -7 -7z" />
    <path d="M2733 3463 c4 -3 10 -3 14 0 3 4 0 7 -7 7 -7 0 -10 -3 -7 -7z" />
    <path d="M2403 3453 c4 -3 10 -3 14 0 3 4 0 7 -7 7 -7 0 -10 -3 -7 -7z" />
    <path d="M2119 3293 l-14 -18 18 14 c9 7 17 15 17 17 0 8 -8 3 -21 -13z" />
    <path d="M2064 3238 l-7 -11 11 7 c7 4 12 9 12 12 0 8 -9 4 -16 -8z" />
    <path d="M3155 3200 c3 -5 8 -10 11 -10 3 0 2 5 -1 10 -3 6 -8 10 -11 10 -3 0
-2 -4 1 -10z" />
    <path d="M2024 3188 l-7 -11 11 7 c12 7 16 16 8 16 -3 0 -8 -5 -12 -12z" />
    <path d="M1900 2900 c0 -7 3 -10 7 -7 3 4 3 10 0 14 -4 3 -7 0 -7 -7z" />
    <path d="M3290 2880 c0 -7 3 -10 7 -7 3 4 3 10 0 14 -4 3 -7 0 -7 -7z" />
    <path d="M3290 2660 c0 -7 3 -10 7 -7 3 4 3 10 0 14 -4 3 -7 0 -7 -7z" />
    <path d="M3280 2610 c0 -7 3 -10 7 -7 3 4 3 10 0 14 -4 3 -7 0 -7 -7z" />
    <path d="M1920 2560 c0 -7 3 -10 7 -7 3 4 3 10 0 14 -4 3 -7 0 -7 -7z" />
    <path d="M3184 2388 l-7 -11 11 7 c12 7 16 16 8 16 -3 0 -8 -5 -12 -12z" />
    <path d="M2015 2370 c3 -5 8 -10 11 -10 3 0 2 5 -1 10 -3 6 -8 10 -11 10 -3 0
-2 -4 1 -10z" />
    <path d="M2055 2320 c3 -5 8 -10 11 -10 3 0 2 5 -1 10 -3 6 -8 10 -11 10 -3 0
-2 -4 1 -10z" />
    <path d="M3124 2308 l-7 -11 11 7 c12 7 16 16 8 16 -3 0 -8 -5 -12 -12z" />
    <path d="M3064 2248 l-7 -11 11 7 c7 4 12 9 12 12 0 8 -9 4 -16 -8z" />
  </g>
</svg>